<?xml version="1.0" standalone="no"?>
<!DOCTYPE svg PUBLIC "-//W3C//DTD SVG 20010904//EN"
 "http://www.w3.org/TR/2001/REC-SVG-20010904/DTD/svg10.dtd">
<svg version="1.0" xmlns="http://www.w3.org/2000/svg"
 width="3908.000000pt" height="1981.000000pt" viewBox="0 0 3908.000000 1981.000000"
 preserveAspectRatio="xMidYMid meet">

<g transform="translate(0.000000,1981.000000) scale(0.100000,-0.100000)"
fill="#000000" stroke="none">
<path d="M20312 19655 l-43 -55 193 -282 c106 -156 245 -359 310 -453 241
-350 418 -614 418 -623 0 -5 -154 -137 -342 -293 -928 -770 -1623 -1352 -1623
-1359 0 -5 72 -64 160 -131 88 -67 191 -146 229 -175 l68 -54 -83 -1 c-46 0
-688 -2 -1426 -4 l-1343 -3 0 1502 c0 1687 6 1554 -76 1645 -26 29 -69 62
-102 78 l-57 28 -3415 3 c-2464 2 -3434 -1 -3482 -9 -200 -33 -375 -199 -423
-401 -13 -54 -15 -262 -15 -1450 l0 -1386 -292 -4 c-290 -4 -294 -4 -373 -32
-250 -87 -418 -292 -487 -596 -10 -44 -13 -798 -13 -3645 l0 -3590 -1718 -3
-1717 -2 0 -80 0 -80 1720 0 1720 0 0 -205 0 -205 7650 0 7650 0 2 2806 3
2806 290 -221 c160 -121 293 -221 296 -221 4 0 348 765 901 2007 l103 232 3
-737 2 -736 -36 -35 c-56 -55 -67 -85 -72 -193 -4 -95 -4 -98 18 -98 19 0 16
-8 -33 -77 -68 -97 -99 -158 -95 -186 5 -37 90 -48 343 -43 223 4 288 13 299
42 8 22 -35 105 -100 191 -49 65 -52 72 -34 78 18 6 20 15 20 89 0 68 -4 91
-26 134 -14 29 -39 61 -55 73 l-29 20 0 730 c0 401 2 729 5 729 3 0 46 -16 95
-35 49 -19 435 -166 857 -325 l767 -291 18 23 c10 13 29 39 44 60 l25 36
-1388 1624 -1388 1625 -1160 541 c-638 298 -1279 597 -1425 665 -146 69 -490
229 -765 357 -275 128 -504 236 -509 241 -16 14 -19 12 -64 -46z m-10498 -525
c101 -89 44 -250 -87 -250 -136 0 -194 159 -91 250 30 25 43 30 89 30 46 0 59
-5 89 -30z m370 0 c102 -90 45 -250 -89 -250 -134 0 -191 160 -89 250 30 25
43 30 89 30 46 0 59 -5 89 -30z m366 4 c83 -70 77 -180 -13 -234 -140 -85
-289 110 -170 222 35 32 47 36 105 37 36 1 53 -5 78 -25z m5798 -20 c68 -48
68 -170 0 -218 -20 -14 -292 -16 -2720 -16 l-2698 0 -32 29 c-27 24 -32 36
-36 89 -4 60 -3 63 31 97 l35 35 2699 0 c2429 0 2701 -2 2721 -16z m-3328
-674 l0 -60 -1670 0 -1670 0 0 60 0 60 1670 0 1670 0 0 -60z m3280 0 l0 -60
-1575 0 -1575 0 0 60 0 60 1575 0 1575 0 0 -60z m-5400 -555 l0 -385 -615 0
-615 0 0 385 0 385 615 0 615 0 0 -385z m1365 0 l0 -380 -617 -3 -618 -2 0
385 0 385 618 -2 617 -3 0 -380z m1365 0 l0 -385 -617 2 -618 3 -3 370 c-1
203 0 376 3 382 3 10 136 13 620 13 l615 0 0 -385z m1340 0 l0 -385 -620 0
-620 0 0 385 0 385 620 0 620 0 0 -385z m1360 0 l0 -385 -617 2 -618 3 -3 370
c-1 203 0 376 3 382 3 10 136 13 620 13 l615 0 0 -385z m-4982 -682 l-3 -38
-837 -3 -838 -2 0 40 0 40 841 0 840 0 -3 -37z m2322 -158 l0 -35 -2000 0
-2000 0 0 35 0 35 2000 0 2000 0 0 -35z m1870 -15 l0 -40 -872 2 -873 3 -3 38
-3 37 875 0 876 0 0 -40z m-1870 -130 l0 -40 -2000 0 -2000 0 0 40 0 40 2000
0 2000 0 0 -40z m2880 -55 l0 -35 -1380 0 -1380 0 0 35 0 35 1380 0 1380 0 0
-35z m-2880 -85 l0 -40 -2000 0 -2000 0 0 40 0 40 2000 0 2000 0 0 -40z m2880
-55 l0 -35 -1380 0 -1380 0 0 35 0 35 1380 0 1380 0 0 -35z m-2880 -150 l0
-35 -2000 0 -2000 0 0 35 0 35 2000 0 2000 0 0 -35z m2880 0 l0 -35 -1380 0
-1380 0 0 35 0 35 1380 0 1380 0 0 -35z m-2880 -130 l0 -35 -2000 0 -2000 0 0
35 0 35 2000 0 2000 0 0 -35z m2880 -60 l0 -35 -1380 0 -1380 0 0 35 0 35
1380 0 1380 0 0 -35z m-2870 -110 l0 -35 -2000 0 -2000 0 0 35 0 35 2000 0
2000 0 0 -35z m2870 -60 l0 -35 -1380 0 -1380 0 0 35 0 35 1380 0 1380 0 0
-35z m-2880 -85 l0 -40 -1990 0 -1990 0 0 40 0 40 1990 0 1990 0 0 -40z m2880
-75 l0 -35 -1380 0 -1380 0 0 35 0 35 1380 0 1380 0 0 -35z m-2880 -65 l0 -40
-1990 0 -1990 0 0 40 0 40 1990 0 1990 0 0 -40z m2880 -105 l0 -35 -1380 0
-1380 0 0 35 0 35 1380 0 1380 0 0 -35z m-7290 -2787 c0 -2427 2 -2801 15
-2856 41 -173 165 -313 340 -383 l60 -24 1998 -3 1997 -2 0 450 0 450 -1975 0
-1975 0 0 35 0 35 1975 0 1975 0 0 50 0 50 -1975 0 -1975 0 0 35 0 35 1975 0
1975 0 0 45 0 45 -1975 0 -1975 0 0 35 0 35 1975 0 1975 0 0 50 0 50 -1975 0
-1975 0 0 35 0 35 1975 0 1975 0 0 45 0 45 -1975 0 -1975 0 0 40 0 40 1975 0
1975 0 0 155 0 155 -1975 0 -1975 0 0 35 0 35 1975 0 1975 0 0 35 0 35 -1975
0 -1975 0 0 35 0 35 1975 0 1975 0 0 40 0 40 -1980 0 -1980 0 0 35 0 35 1980
0 1980 0 0 50 0 50 -1985 0 -1985 0 0 35 0 35 1985 0 1985 0 0 30 0 30 -1985
0 -1985 0 0 35 0 35 1985 0 1985 0 0 85 0 85 -1195 0 -1195 0 0 35 0 35 1195
0 1195 0 0 35 0 35 -1195 0 -1195 0 0 35 0 35 1195 0 1195 0 0 60 0 60 -1195
0 -1195 0 0 35 0 35 1195 0 1195 0 0 35 0 35 -1195 0 -1195 0 0 35 0 35 1195
0 1195 0 0 35 0 35 -1195 0 -1195 0 0 35 0 35 1195 0 1195 0 0 270 0 270 -505
0 -505 0 0 245 0 245 505 0 505 0 0 100 0 100 -1995 0 -1995 0 0 35 0 35 1995
0 1995 0 0 40 0 40 -1995 0 -1995 0 0 35 0 35 1995 0 1995 0 0 35 0 35 -1995
0 -1995 0 0 40 0 40 1995 0 1995 0 0 35 0 35 -1995 0 -1995 0 0 35 0 35 1995
0 1995 0 0 70 0 70 -1995 0 -1995 0 0 35 0 35 2055 0 2055 0 0 160 0 160 320
0 320 0 0 -160 0 -160 85 0 85 0 0 160 0 160 315 0 315 0 0 -160 0 -160 85 0
85 0 0 160 0 160 315 0 315 0 0 -160 0 -160 400 0 400 0 0 325 0 325 1663 0
1663 0 727 -552 c401 -304 1067 -810 1480 -1124 l752 -571 3 -2742 2 -2741
-7382 2 -7383 3 -3 3485 c-2 2316 1 3520 8 3589 19 192 83 333 210 462 59 59
95 85 162 119 120 59 166 68 361 69 l167 1 0 -2792z m1680 2627 l0 -155 -625
0 -625 0 0 155 0 155 625 0 625 0 0 -155z m1460 0 l0 -155 -625 0 -625 0 0
155 0 155 625 0 625 0 0 -155z m1270 0 l0 -155 -560 0 -560 0 0 155 0 155 560
0 560 0 0 -155z m2880 -5 l0 -40 -1377 2 -1378 3 -3 23 c-8 56 -106 52 1383
52 l1375 0 0 -40z m-2870 -305 l0 -35 -2000 0 -2000 0 0 35 0 35 2000 0 2000
0 0 -35z m-2740 -1340 l0 -245 -625 0 -625 0 0 245 0 245 625 0 625 0 0 -245z
m1500 0 l0 -245 -630 0 -630 0 0 245 0 245 630 0 630 0 0 -245z m-1510 -995
l0 -380 -615 0 -615 0 0 380 0 380 615 0 615 0 0 -380z m2030 340 l0 -40 -840
0 -840 0 0 33 c0 19 3 37 7 40 3 4 381 7 840 7 l833 0 0 -40z"/>
<path d="M17023 13469 c-101 -19 -233 -103 -301 -191 -53 -70 -99 -168 -117
-254 -22 -101 -11 -4157 11 -4249 34 -141 131 -264 259 -326 l70 -34 1657 -3
1658 -2 0 50 0 50 -1623 0 c-1809 0 -1678 -5 -1779 70 -59 45 -121 130 -140
193 -7 23 -12 83 -12 132 0 80 4 98 31 157 39 82 100 145 179 184 l59 29 1643
3 1642 2 0 2100 0 2100 -1597 -1 c-879 -1 -1617 -5 -1640 -10z m2317 -534 l0
-45 -895 0 -895 0 0 -1550 0 -1550 1085 0 1085 0 0 941 0 941 40 -32 40 -32 0
-954 0 -954 -1165 0 -1165 0 0 1640 0 1640 935 0 935 0 0 -45z m-112 -797 l3
-78 -596 0 -595 0 0 73 c0 41 3 77 7 80 3 4 270 6 592 5 l586 -3 3 -77z m0
-305 l-3 -78 -590 0 -590 0 -3 78 -3 77 596 0 596 0 -3 -77z m2 -303 l0 -80
-595 0 -595 0 0 80 0 80 595 0 595 0 0 -80z"/>
<path d="M5610 7935 l0 -145 -475 0 -475 0 0 -90 0 -90 -40 0 -40 0 0 -580 0
-580 -130 0 -130 0 0 580 0 580 -230 0 -230 0 0 -580 0 -580 120 0 120 0 0
-110 0 -110 2686 0 c2978 0 2789 4 3004 -66 489 -158 754 -556 625 -941 -35
-104 -84 -182 -174 -276 -124 -129 -291 -228 -477 -282 -200 -58 -33 -55
-2966 -55 l-2698 0 0 -110 0 -110 -168 0 c-183 0 -242 -10 -340 -58 -80 -39
-165 -125 -205 -209 l-32 -68 -3 -287 -3 -288 455 0 456 0 0 -455 0 -455 555
0 555 0 0 455 0 455 2955 0 2956 0 -3 293 -3 292 -33 67 c-58 118 -192 218
-330 247 -35 7 -268 11 -690 12 l-637 1 105 19 c203 35 387 106 545 209 93 61
238 199 301 286 58 81 119 211 145 309 30 112 30 298 0 410 -24 89 -83 221
-133 292 -51 75 -176 201 -263 266 -95 71 -287 166 -410 204 l-90 27 -590 6
c-560 6 -594 8 -667 28 -182 50 -338 163 -400 290 l-33 67 -3 492 -3 493 -909
0 -910 0 0 145 0 145 -330 0 -330 0 0 -145z"/>
<path d="M15694 7360 c-106 -22 -202 -98 -251 -198 -25 -51 -28 -68 -28 -157
0 -89 3 -106 28 -157 36 -74 119 -150 195 -178 78 -30 215 -25 282 9 107 55
167 130 196 241 55 217 -98 428 -325 445 -31 2 -75 0 -97 -5z"/>
<path d="M8440 5163 l0 -286 23 20 c75 70 303 263 309 263 4 0 77 -61 162
-135 85 -74 157 -135 160 -135 3 0 6 126 6 280 l0 280 -330 0 -330 0 0 -287z"/>
</g>
</svg>
