<?xml version="1.0" standalone="no"?>
<!DOCTYPE svg PUBLIC "-//W3C//DTD SVG 20010904//EN"
 "http://www.w3.org/TR/2001/REC-SVG-20010904/DTD/svg10.dtd">
<svg version="1.0" xmlns="http://www.w3.org/2000/svg"
 width="1848.000000pt" height="1703.000000pt" viewBox="0 0 1848.000000 1703.000000"
 preserveAspectRatio="xMidYMid meet">

<g transform="translate(0.000000,1703.000000) scale(0.100000,-0.100000)"
fill="#000000" stroke="none">
<path d="M13870 16711 c0 -4 -8 -8 -17 -8 -32 2 -153 -26 -153 -35 0 -5 -4 -7
-9 -4 -15 9 -151 -26 -144 -37 3 -6 1 -7 -6 -3 -16 10 -162 -25 -154 -37 3 -6
1 -7 -6 -3 -11 7 -104 -9 -126 -22 -5 -3 -16 -7 -25 -8 -8 -2 -22 -4 -30 -7
-8 -2 -36 -7 -62 -11 -26 -5 -46 -12 -43 -16 2 -4 -7 -6 -20 -4 -14 1 -25 -2
-25 -7 0 -4 -6 -6 -12 -4 -18 7 -68 -8 -67 -20 0 -11 43 -10 69 1 8 4 24 8 35
9 26 4 146 34 165 42 8 3 18 6 21 5 3 0 39 8 80 19 41 11 83 22 94 24 11 3 47
12 80 20 33 9 73 18 89 21 16 3 41 11 55 16 14 6 35 12 46 14 22 3 37 6 143
31 53 12 68 19 55 24 -25 10 -33 10 -33 0z"/>
<path d="M12852 16466 c-45 -13 -80 -24 -78 -27 2 -2 -8 -5 -22 -5 -31 -2 -35
-3 -226 -49 -77 -19 -143 -40 -148 -47 -5 -9 -8 -9 -8 -1 0 11 -43 4 -90 -14
-8 -3 -24 -7 -35 -8 -11 -2 -94 -22 -185 -45 -91 -23 -176 -44 -190 -46 -68
-13 -100 -25 -93 -37 4 -7 0 -7 -10 2 -12 9 -17 10 -17 2 0 -7 -5 -9 -10 -6
-16 10 -51 -5 -43 -18 4 -7 -1 -6 -10 2 -11 8 -17 9 -17 3 0 -6 -7 -9 -15 -6
-8 3 -20 2 -27 -2 -7 -5 -24 -10 -38 -12 -14 -1 -32 -5 -40 -9 -8 -3 -24 -7
-35 -8 -26 -4 -225 -54 -245 -62 -8 -3 -24 -6 -35 -7 -48 -5 -134 -30 -129
-37 3 -5 -2 -6 -10 -3 -9 3 -24 3 -33 -1 -10 -4 -25 -9 -34 -10 -29 -3 -284
-69 -289 -75 -3 -3 -21 -6 -40 -8 -19 -1 -43 -10 -54 -20 -11 -9 -16 -11 -12
-4 9 15 -4 15 -41 1 -15 -6 -39 -13 -53 -15 -78 -13 -208 -49 -204 -56 3 -4
-1 -5 -9 -2 -13 4 -158 -27 -197 -43 -8 -3 -24 -8 -35 -9 -53 -10 -171 -37
-180 -42 -5 -3 -18 -7 -30 -8 -11 -1 -74 -17 -140 -34 -135 -34 -147 -37 -192
-46 -19 -4 -30 -11 -26 -17 3 -6 1 -7 -5 -3 -13 8 -130 -13 -137 -24 -3 -4 1
-12 8 -17 8 -7 44 -2 107 14 52 13 104 26 115 28 107 24 521 130 525 134 3 4
12 6 20 6 8 -1 29 3 45 8 17 4 39 10 50 12 75 16 116 28 121 36 3 5 10 7 15 4
5 -4 36 1 69 9 33 9 88 23 123 32 34 9 76 19 92 21 17 3 32 8 35 12 3 4 12 6
20 6 16 -1 225 51 250 62 8 3 23 5 34 4 10 -2 16 1 13 6 -3 4 7 9 21 10 15 0
36 3 47 6 11 3 108 26 215 52 107 26 200 51 206 56 6 5 14 6 17 3 4 -4 18 1
33 11 15 9 24 12 20 7 -4 -7 4 -8 26 -1 18 6 42 12 53 14 100 22 125 29 125
37 0 5 4 7 9 3 5 -3 99 18 208 46 109 27 204 51 211 51 6 1 12 4 12 7 0 3 16
7 36 8 20 1 45 10 57 20 11 10 17 12 12 4 -5 -10 -3 -12 11 -8 11 3 51 13 89
22 39 9 77 19 85 22 8 3 24 8 35 10 59 10 165 37 165 42 0 3 17 7 38 9 20 1
39 7 40 12 2 6 7 8 12 5 13 -8 151 28 147 39 -5 16 -18 15 -105 -8z"/>
<path d="M6190 15887 c-47 -11 -86 -23 -88 -27 -2 -5 -12 -5 -24 -2 -12 3 -19
1 -16 -4 3 -5 -13 -10 -35 -11 -23 -1 -43 -6 -45 -12 -2 -6 -8 -9 -12 -6 -11
7 -101 -14 -117 -28 -7 -5 -13 -6 -13 -2 0 4 -6 2 -13 -4 -8 -6 -17 -8 -20 -5
-3 4 -14 3 -24 -1 -10 -4 -27 -9 -38 -10 -54 -5 -94 -18 -88 -28 3 -6 1 -7 -6
-3 -13 8 -604 -132 -609 -144 -2 -4 -12 -6 -22 -3 -11 3 -20 1 -20 -3 0 -5
-13 -10 -30 -10 -50 -2 -174 -36 -194 -53 -11 -9 -16 -10 -12 -3 4 6 2 12 -3
12 -6 0 -11 -3 -11 -7 0 -5 -16 -9 -36 -10 -19 -1 -47 -9 -61 -18 -14 -10 -22
-12 -19 -6 4 6 1 9 -6 7 -7 -3 -46 -12 -85 -21 -40 -10 -71 -21 -68 -25 3 -5
-3 -6 -13 -3 -10 2 -63 -8 -118 -22 -54 -15 -107 -26 -117 -26 -9 0 -15 -4
-12 -9 3 -6 0 -8 -7 -5 -7 3 -38 -2 -68 -10 -30 -8 -66 -17 -80 -20 -39 -6
-483 -115 -500 -122 -8 -3 -22 -7 -30 -8 -40 -5 -136 -28 -145 -34 -5 -4 -23
-8 -40 -10 -16 -1 -39 -10 -49 -19 -11 -10 -16 -11 -12 -4 7 12 -6 17 -17 5
-4 -3 -21 -8 -38 -10 -18 -2 -38 -11 -46 -21 -8 -9 -12 -11 -8 -4 8 15 2 15
-65 -4 -30 -8 -66 -17 -80 -19 -46 -7 -131 -31 -126 -36 2 -2 -10 -5 -27 -6
-18 -1 -97 -18 -177 -38 -80 -20 -151 -37 -157 -37 -7 -1 -13 -5 -13 -9 0 -5
-7 -5 -17 -2 -9 4 -14 2 -10 -3 4 -7 -6 -9 -25 -6 -21 3 -29 1 -24 -7 4 -6 2
-9 -6 -6 -10 4 -245 -48 -358 -79 -8 -3 -19 -5 -23 -5 -5 -1 -5 -7 -1 -13 6
-10 5 -10 -8 -1 -8 7 -17 10 -20 7 -3 -2 -18 -7 -34 -10 -40 -7 -275 -64 -294
-71 -8 -3 -24 -7 -35 -8 -11 -2 -49 -11 -85 -20 -36 -9 -74 -19 -85 -21 -11
-2 -62 -14 -113 -26 -71 -17 -91 -25 -87 -36 4 -12 3 -12 -9 -3 -10 8 -24 10
-38 5 -13 -4 -26 -8 -30 -9 -3 0 -9 -3 -13 -7 -4 -4 -14 -4 -23 -1 -10 4 -13
2 -8 -5 4 -8 2 -10 -8 -6 -13 5 -308 -61 -331 -74 -5 -3 -18 -7 -30 -8 -11 -1
-49 -10 -85 -19 -82 -20 -97 -23 -137 -31 -18 -3 -30 -10 -27 -15 3 -5 -1 -6
-9 -3 -8 3 -41 -2 -73 -11 -80 -22 -95 -25 -124 -31 -86 -16 -128 -28 -145
-41 -13 -10 -16 -17 -8 -20 7 -2 9 -11 7 -18 -3 -8 -2 -20 2 -27 4 -6 9 -26
11 -42 2 -16 11 -39 21 -50 9 -10 11 -16 3 -11 -10 6 -11 2 -6 -16 4 -13 11
-25 15 -27 4 -2 6 -11 4 -20 -7 -28 32 -157 45 -154 8 1 9 -2 5 -10 -18 -28 6
-95 29 -81 6 3 7 1 3 -6 -4 -6 -12 -8 -18 -5 -7 4 -8 2 -4 -4 7 -12 13 -32 22
-82 2 -14 17 -73 32 -132 24 -91 30 -106 42 -95 12 10 12 9 1 -5 -9 -12 -11
-27 -6 -45 5 -16 10 -36 12 -46 6 -35 94 -382 100 -397 3 -8 7 -22 8 -30 2 -8
6 -26 10 -40 3 -14 8 -36 11 -50 3 -14 10 -43 16 -65 6 -22 13 -46 14 -54 2
-8 6 -26 10 -40 4 -14 8 -29 8 -33 1 -3 4 -9 8 -13 4 -4 4 -13 1 -21 -3 -8 0
-14 7 -14 6 0 9 -4 6 -9 -9 -13 16 -111 26 -105 4 3 5 -1 2 -9 -3 -8 7 -59 21
-113 15 -55 27 -105 27 -111 1 -7 4 -13 7 -13 3 0 7 -10 7 -22 1 -13 4 -32 7
-43 3 -11 6 -26 6 -33 1 -7 5 -11 9 -8 4 2 7 -8 6 -22 -1 -25 10 -78 23 -112
3 -8 7 -26 9 -39 2 -13 6 -31 10 -40 4 -9 8 -23 9 -31 5 -32 48 -206 53 -215
3 -5 7 -16 8 -25 1 -8 5 -26 8 -40 3 -14 11 -48 17 -77 7 -29 15 -50 19 -48 4
2 6 -6 5 -18 -1 -12 7 -53 17 -92 10 -38 21 -81 24 -95 7 -38 55 -223 61 -240
3 -8 7 -22 8 -30 7 -60 111 -447 119 -443 5 4 6 1 2 -6 -8 -13 21 -148 35
-167 5 -6 7 -13 4 -16 -3 -2 0 -20 6 -39 15 -49 20 -72 21 -86 1 -7 5 -13 10
-13 5 0 6 -4 3 -10 -3 -5 0 -10 7 -10 10 0 10 -2 -1 -9 -9 -6 -10 -11 -2 -15
6 -4 9 -11 6 -15 -4 -7 17 -100 33 -141 3 -8 5 -18 4 -21 0 -3 10 -48 24 -100
25 -95 29 -110 40 -164 9 -43 14 -48 32 -33 14 11 14 9 -1 -8 -21 -25 -21 -29
-1 -48 8 -9 11 -16 6 -16 -14 0 65 -302 80 -312 10 -6 10 -8 0 -8 -8 0 -10 -5
-6 -12 5 -7 9 -20 9 -29 3 -33 60 -244 67 -247 5 -2 5 -8 2 -13 -3 -6 2 -21
11 -36 9 -14 12 -22 5 -18 -9 5 -10 2 -6 -13 10 -30 76 -282 82 -312 5 -25 26
-108 45 -183 7 -25 14 -35 22 -31 9 5 9 4 1 -5 -9 -9 -7 -32 8 -89 10 -42 21
-84 25 -92 3 -8 7 -22 8 -30 6 -44 29 -129 34 -126 3 2 6 -10 7 -28 0 -18 4
-41 9 -52 5 -10 9 -26 10 -34 6 -49 50 -208 57 -204 4 3 5 -1 2 -9 -3 -8 4
-50 16 -93 11 -44 23 -88 25 -99 26 -117 40 -165 47 -165 5 0 7 -4 3 -9 -7
-13 55 -262 64 -256 4 2 5 -10 3 -27 -4 -27 -2 -30 13 -24 13 5 15 3 8 -6 -8
-11 -10 -32 -4 -40 2 -2 4 -15 6 -29 6 -44 57 -233 66 -245 5 -6 6 -14 3 -17
-4 -3 -4 -14 0 -23 5 -14 9 -14 24 -3 16 13 16 12 1 -6 -16 -19 -14 -30 23
-182 22 -90 44 -161 48 -158 4 2 5 -6 3 -18 -4 -25 50 -240 59 -232 3 3 3 -7
0 -22 l-5 -28 24 20 24 20 -18 -22 c-18 -21 -18 -24 1 -100 11 -43 21 -85 23
-93 2 -8 8 -18 13 -22 11 -8 18 -40 7 -33 -5 2 -4 -16 2 -40 6 -24 13 -42 17
-40 4 2 5 -7 2 -20 -2 -15 0 -25 7 -25 7 0 9 -5 6 -10 -9 -15 23 -62 37 -54 7
4 8 3 4 -5 -6 -9 -11 -9 -24 1 -14 11 -15 10 -9 -5 4 -10 7 -25 7 -33 0 -9 4
-13 8 -10 4 3 8 -5 9 -17 1 -58 3 -68 15 -61 7 4 8 3 4 -4 -8 -14 3 -84 13
-78 4 3 7 -5 7 -17 -1 -12 5 -50 13 -84 10 -46 18 -63 30 -63 13 0 13 -2 2 -9
-17 -11 -5 -54 12 -45 9 5 9 3 0 -6 -9 -10 -9 -18 -1 -34 6 -12 11 -22 10 -23
-1 -2 -2 -12 -2 -24 0 -13 4 -18 12 -13 7 4 8 3 4 -4 -8 -14 3 -84 13 -78 3 2
7 -8 7 -22 1 -15 4 -38 8 -52 3 -14 9 -40 12 -57 4 -19 11 -30 17 -26 6 3 7 1
3 -5 -10 -17 4 -83 17 -75 6 3 7 1 3 -5 -4 -7 -1 -37 6 -67 10 -43 16 -54 28
-50 12 5 13 4 3 -6 -19 -19 -16 -39 5 -39 12 0 13 -3 4 -8 -13 -9 -6 -72 9
-72 5 0 5 -7 2 -17 -4 -9 -2 -14 3 -11 8 5 10 -5 14 -74 1 -10 6 -18 11 -18 6
0 8 -4 5 -9 -7 -11 15 -111 23 -111 4 0 7 -14 7 -31 1 -17 8 -35 15 -40 8 -5
10 -9 5 -9 -5 0 -1 -10 10 -22 12 -15 13 -18 3 -10 -15 11 -15 7 -2 -50 8 -34
17 -66 19 -70 3 -5 7 -21 10 -36 3 -15 7 -34 11 -42 3 -8 5 -23 4 -32 -2 -16
9 -22 31 -19 8 1 4 -26 -5 -35 -10 -11 -8 -36 2 -29 5 3 13 0 17 -6 5 -8 3 -9
-6 -4 -10 6 -11 1 -6 -21 3 -16 9 -42 12 -59 3 -16 10 -32 15 -33 5 -2 7 -7 4
-12 -3 -5 3 -40 12 -79 13 -52 22 -70 32 -66 10 4 11 2 4 -7 -13 -19 -9 -44 7
-40 10 2 11 0 2 -10 -8 -10 -8 -26 0 -58 6 -25 14 -47 17 -50 4 -3 7 -12 7
-20 0 -24 28 -140 34 -140 3 0 6 -17 7 -37 1 -20 6 -39 10 -42 5 -3 8 -13 8
-21 0 -8 12 -67 28 -130 47 -190 47 -191 60 -183 9 5 9 3 0 -9 -7 -8 -10 -17
-8 -20 3 -3 8 -16 10 -29 11 -57 18 -85 23 -94 3 -5 7 -16 7 -25 3 -34 49
-209 54 -205 3 1 7 -12 7 -29 2 -48 25 -137 34 -131 5 3 6 -3 4 -12 -5 -19 49
-246 57 -239 2 2 4 -8 5 -22 1 -41 66 -297 75 -300 5 -2 7 -8 3 -13 -3 -5 0
-24 6 -43 6 -18 12 -42 14 -52 2 -10 18 -77 35 -149 30 -123 34 -133 79 -183
26 -29 61 -69 79 -90 17 -20 51 -59 74 -87 24 -27 49 -49 56 -49 7 1 10 -2 7
-7 -7 -13 51 -88 144 -186 17 -19 32 -39 32 -43 0 -5 11 -17 23 -27 13 -10 29
-29 36 -41 7 -12 16 -20 22 -17 5 4 9 0 9 -7 0 -17 89 -120 99 -114 4 3 8 -1
8 -8 0 -16 42 -72 59 -80 14 -5 30 97 18 115 -4 7 -3 9 4 5 6 -4 11 1 11 11 1
20 4 43 14 88 4 17 9 46 11 65 3 19 15 89 26 155 12 65 19 127 17 137 -3 10
-1 15 5 12 5 -3 9 2 7 12 -1 11 1 30 4 44 4 14 9 41 11 60 2 19 9 55 14 80 5
25 10 52 11 60 0 8 6 49 13 90 8 41 13 84 13 95 0 11 2 22 5 25 5 4 76 413
146 840 2 14 8 50 13 80 14 80 23 141 25 170 1 14 5 30 8 35 5 9 14 59 25 135
1 14 16 103 33 198 16 95 29 176 28 180 -1 4 1 14 5 22 5 13 41 219 52 295 2
17 9 55 14 85 6 30 13 71 15 90 3 19 21 125 40 235 19 110 37 223 40 250 3 28
12 86 21 130 8 44 17 98 20 120 3 22 12 76 20 120 8 44 14 84 13 90 0 5 2 17
5 25 12 28 158 923 153 937 -3 7 -1 13 5 13 6 0 9 10 8 23 -2 12 -1 27 3 32
10 17 49 275 43 285 -4 6 -1 10 5 10 6 0 10 8 9 18 -2 9 1 27 5 39 4 12 9 44
11 70 2 26 6 55 9 63 7 20 37 197 35 207 -1 4 0 15 4 23 3 8 11 49 17 90 6 41
14 86 16 100 30 163 54 314 50 318 -3 3 -2 10 3 16 5 6 12 34 15 61 8 59 2 25
66 395 28 162 49 303 46 313 -2 9 0 15 4 12 4 -3 12 23 16 58 4 34 8 64 9 67
12 51 25 152 21 159 -3 5 -2 11 2 13 5 1 21 82 37 178 15 96 29 184 31 195 2
11 18 99 34 195 17 96 32 185 35 196 3 15 15 24 40 28 19 4 35 10 35 14 0 4 8
8 18 9 40 3 87 15 90 24 2 5 7 7 11 4 11 -6 225 55 229 66 2 5 8 7 13 4 7 -5
124 24 169 42 8 3 21 7 29 9 53 10 140 38 137 43 -2 3 12 6 32 7 20 0 38 6 40
12 2 7 8 10 13 7 4 -3 34 2 66 11 32 10 63 19 68 20 92 23 180 53 178 61 -1 5
4 10 12 10 8 0 12 -4 10 -8 -3 -4 13 -2 35 3 22 6 40 13 40 17 0 3 10 7 23 7
12 1 31 4 42 7 11 3 32 8 48 12 15 4 27 11 27 15 0 4 8 7 18 7 29 -1 92 15 88
22 -3 4 5 7 17 7 38 -1 227 57 220 67 -3 6 -1 7 5 3 15 -9 83 4 77 14 -3 5 3
7 12 5 10 -1 27 2 38 8 11 6 25 10 30 9 6 -1 65 14 130 33 66 20 128 37 137
40 68 16 137 39 134 44 -2 3 14 7 36 8 21 1 46 7 54 14 8 6 14 8 14 5 0 -4 10
-1 22 5 13 7 38 14 56 15 19 2 40 8 48 15 8 6 14 9 14 6 0 -3 21 1 48 9 56 18
73 22 90 23 7 1 11 5 8 10 -3 4 6 7 19 5 14 -1 25 2 25 7 0 6 4 8 9 5 10 -7
121 23 140 38 8 6 25 9 39 8 17 -3 22 0 17 9 -5 7 -4 10 2 6 16 -10 74 4 66
16 -3 6 -1 7 5 3 17 -10 95 13 110 32 8 10 12 11 12 3 0 -14 43 -5 48 10 2 5
8 7 13 3 5 -3 26 0 47 7 20 7 40 12 45 11 4 -1 7 3 7 9 0 5 4 8 9 5 9 -6 175
38 203 54 10 6 29 10 43 10 17 0 24 4 19 12 -4 7 -3 8 4 4 13 -8 104 13 98 23
-2 3 10 6 28 7 18 0 41 4 52 9 24 10 30 12 50 14 8 0 13 5 10 9 -3 4 5 8 17 8
30 -1 167 36 167 45 0 3 11 7 24 6 20 0 215 53 256 70 20 8 19 8 68 17 23 4
40 11 38 15 -3 4 5 7 17 7 26 1 260 65 267 73 3 3 18 7 33 9 16 2 40 8 55 14
33 14 28 13 80 22 23 4 42 11 42 14 0 4 14 8 31 9 17 1 37 7 44 13 6 5 15 7
18 3 4 -3 7 -1 7 4 0 6 7 10 17 9 30 -5 168 41 165 55 -3 10 0 10 12 -1 17
-13 22 0 6 16 -6 6 2 10 22 11 20 0 26 -2 17 -7 -7 -5 -18 -6 -24 -3 -7 4 -7
2 1 -6 7 -8 43 -2 140 25 71 20 140 43 153 51 18 11 22 12 16 2 -4 -8 18 12
49 44 31 32 54 63 50 68 -3 5 0 8 8 7 7 -2 12 3 10 10 -1 8 2 11 7 8 13 -8
163 163 155 176 -4 6 -3 8 3 5 9 -6 51 36 168 168 11 12 56 62 100 110 44 48
79 94 79 101 -1 7 1 12 5 11 12 -3 80 66 75 75 -3 5 -2 7 3 6 13 -5 265 280
258 292 -3 6 0 7 9 4 15 -6 22 11 17 39 -1 5 2 6 7 3 15 -9 86 60 77 74 -5 8
-4 11 3 6 12 -7 128 120 126 139 -1 7 4 11 11 9 16 -6 47 35 38 50 -3 6 -2 8
2 4 13 -12 129 114 117 127 -4 4 -2 6 3 4 6 -1 22 3 38 9 15 6 56 19 92 29 35
9 61 21 58 26 -3 6 -1 7 5 3 16 -9 132 23 156 43 11 9 17 11 13 5 -4 -7 2 -9
18 -6 14 2 23 8 20 12 -3 5 5 6 17 2 13 -3 19 -1 15 5 -4 6 4 9 18 7 14 -1 25
1 25 6 0 4 6 8 13 7 33 -1 58 4 54 11 -3 4 11 8 31 9 19 1 39 8 43 15 4 7 11
10 14 6 10 -10 148 33 163 51 7 9 11 10 7 4 -9 -18 -4 -17 110 18 55 17 106
31 113 31 6 1 12 5 12 9 0 4 6 7 13 6 33 -1 58 4 54 11 -3 4 8 7 23 8 15 1 36
5 46 9 11 4 30 10 44 12 13 2 30 8 36 14 6 5 14 6 17 2 4 -3 7 -1 7 5 0 6 7 9
15 6 8 -4 22 -1 30 6 8 7 15 10 15 7 0 -3 24 1 53 9 86 25 84 24 67 34 -9 6
-10 10 -3 10 6 0 14 -4 17 -9 3 -4 17 -6 31 -4 13 3 23 8 21 12 -2 3 7 7 20 8
44 4 54 6 54 13 0 3 8 6 18 7 9 1 24 3 32 5 8 3 41 10 72 18 33 7 55 17 51 23
-3 6 -1 7 4 4 14 -9 74 3 68 14 -3 4 0 11 6 15 8 4 9 3 5 -4 -4 -7 -3 -12 2
-12 10 0 135 36 162 47 18 7 28 9 53 11 10 1 16 6 12 11 -3 5 0 13 6 17 8 4 9
3 5 -4 -9 -15 6 -15 56 0 28 8 35 14 26 21 -9 6 -8 7 5 3 21 -7 119 13 113 22
-2 4 12 8 31 9 19 1 40 7 48 13 7 6 17 10 21 8 17 -4 74 14 69 22 -3 4 3 6 12
4 27 -7 108 21 105 35 -2 9 3 9 15 3 21 -12 76 5 67 21 -5 8 -3 8 6 0 11 -10
16 -9 27 5 8 9 11 11 7 3 -5 -10 -1 -12 17 -6 44 13 94 28 109 33 8 3 24 7 35
9 11 2 79 21 150 42 90 26 129 42 127 51 -2 10 0 11 10 2 19 -16 100 7 93 27
-4 11 -2 11 8 3 10 -9 34 -6 98 13 46 14 91 27 99 29 83 22 179 50 195 59 11
6 29 11 40 11 12 1 19 7 17 15 -2 11 0 12 11 3 16 -14 85 4 105 28 8 8 11 9 7
3 -3 -7 -1 -13 4 -13 6 0 11 5 11 11 0 5 5 7 10 4 6 -4 27 -1 48 6 43 15 46
16 68 18 8 0 12 5 9 11 -3 5 0 7 9 4 23 -9 88 15 79 29 -5 9 -3 9 8 1 10 -8
33 -5 87 11 40 11 69 24 65 28 -4 5 0 5 9 2 10 -4 23 -3 30 1 7 5 24 10 38 12
14 2 27 7 28 13 2 5 8 7 12 4 8 -5 69 11 375 100 76 22 109 36 107 45 -2 10 0
11 11 2 10 -9 44 -3 145 26 73 21 130 41 126 44 -3 4 2 5 13 4 24 -4 85 13 98
26 7 8 6 8 -4 3 -10 -6 -12 -4 -7 4 5 8 12 9 20 2 14 -12 56 -3 56 11 0 5 4 7
9 3 15 -9 131 27 124 38 -3 6 -1 7 6 3 16 -11 71 3 71 18 0 7 -32 22 -70 35
l-71 22 -112 -31 c-62 -17 -119 -33 -127 -37 -8 -3 -24 -8 -35 -10 -20 -3
-146 -40 -175 -51 -8 -3 -24 -7 -35 -9 -11 -2 -27 -6 -35 -10 -8 -3 -24 -8
-35 -10 -11 -2 -45 -11 -75 -20 -30 -9 -58 -16 -62 -15 -5 1 -8 -2 -8 -7 0 -5
-6 -9 -12 -8 -41 1 -60 -4 -55 -16 3 -8 -4 -14 -16 -15 -18 -1 -19 1 -7 9 11
7 6 8 -15 3 -16 -4 -34 -9 -40 -13 -5 -3 -17 -6 -25 -8 -55 -8 -148 -38 -143
-46 3 -6 1 -7 -4 -4 -6 4 -25 4 -43 1 -22 -5 -29 -11 -25 -22 4 -11 2 -12 -7
-4 -16 13 -70 4 -61 -11 3 -6 1 -7 -5 -3 -15 9 -353 -85 -346 -96 3 -5 -5 -6
-19 -3 -14 4 -61 -5 -113 -20 -49 -15 -108 -31 -132 -37 -26 -6 -40 -14 -36
-20 4 -7 2 -8 -5 -4 -15 10 -73 -3 -66 -15 4 -5 -1 -6 -9 -3 -8 3 -32 0 -53
-7 -21 -7 -40 -12 -43 -12 -23 -1 -115 -36 -113 -43 1 -6 -7 -10 -17 -10 -10
0 -17 3 -15 7 3 3 -7 4 -20 1 -14 -2 -23 -8 -20 -12 3 -5 -4 -6 -15 -3 -12 3
-20 0 -20 -6 0 -7 -5 -9 -10 -6 -9 6 -55 -5 -100 -22 -19 -8 -27 -10 -41 -12
-5 0 -7 -7 -3 -13 6 -10 5 -10 -8 -1 -8 7 -18 10 -22 6 -3 -4 -17 -8 -29 -10
-12 -2 -29 -6 -37 -10 -8 -3 -21 -5 -29 -4 -7 1 -10 -2 -6 -8 3 -6 0 -9 -8 -5
-7 2 -27 0 -43 -7 -16 -6 -42 -13 -59 -16 -16 -3 -39 -10 -50 -16 -11 -6 -29
-12 -40 -12 -11 -1 -31 -8 -45 -15 -14 -7 -26 -13 -27 -12 -3 2 -12 1 -28 -3
-5 -1 -20 -3 -33 -3 -15 -1 -21 -6 -16 -14 4 -6 3 -8 -3 -5 -9 6 -44 -2 -173
-37 -8 -2 -28 -7 -45 -11 -16 -4 -36 -12 -42 -18 -7 -5 -13 -7 -13 -4 0 3 -28
-3 -62 -13 -42 -12 -62 -22 -60 -31 3 -10 0 -11 -8 -3 -15 15 -63 5 -56 -12 3
-7 0 -16 -6 -20 -6 -4 -8 -3 -5 3 4 6 0 14 -9 17 -22 9 -26 8 -18 -6 4 -6 3
-8 -3 -5 -6 4 -25 4 -42 1 -27 -6 -30 -9 -19 -23 11 -14 11 -14 -4 -3 -20 16
-96 -1 -115 -26 -9 -10 -13 -11 -13 -3 0 13 -42 5 -48 -10 -2 -4 -9 -6 -15 -4
-19 7 -139 -30 -130 -40 4 -4 2 -5 -4 -1 -22 12 -136 -25 -156 -50 -18 -23
-44 -24 -31 -2 5 7 0 9 -12 6 -227 -62 -332 -93 -345 -104 -9 -8 -18 -11 -22
-8 -8 9 -68 -6 -62 -15 2 -5 -6 -8 -18 -7 -31 1 -307 -75 -302 -84 2 -4 -7 -5
-22 -2 -15 3 -23 1 -20 -4 3 -6 -2 -10 -11 -10 -28 -2 -84 -14 -101 -23 -9 -5
-35 -12 -59 -16 -23 -4 -40 -11 -37 -16 4 -5 -1 -6 -9 -3 -23 9 -92 -16 -75
-27 9 -6 10 -9 2 -9 -6 0 -14 4 -17 9 -9 14 -48 0 -42 -15 4 -11 1 -11 -12 -3
-13 8 -27 7 -57 -6 -22 -10 -44 -17 -49 -16 -5 1 -16 -1 -25 -5 -9 -4 -23 -8
-31 -9 -41 -5 -118 -29 -114 -36 2 -4 -5 -5 -15 -2 -23 6 -114 -73 -107 -93 3
-8 0 -11 -8 -8 -7 3 -20 -5 -28 -18 -9 -13 -53 -61 -97 -107 -71 -72 -80 -85
-69 -100 11 -14 11 -14 -3 -4 -13 10 -23 4 -65 -41 -27 -29 -80 -85 -117 -125
-38 -40 -65 -77 -61 -83 4 -6 3 -8 -3 -5 -5 3 -43 -30 -84 -73 -41 -44 -113
-121 -161 -171 -48 -51 -85 -96 -82 -101 3 -5 1 -7 -4 -6 -13 4 -197 -192
-196 -209 1 -7 -3 -10 -9 -6 -6 4 -8 0 -4 -10 3 -9 -1 -21 -11 -29 -11 -9 -14
-10 -8 0 4 6 3 12 -3 12 -17 0 -271 -282 -264 -293 3 -6 2 -7 -4 -4 -5 4 -23
-7 -38 -23 -16 -17 -37 -30 -47 -30 -11 0 -17 -3 -15 -7 3 -5 -11 -9 -30 -10
-19 -1 -40 -6 -47 -12 -7 -6 -16 -8 -19 -4 -4 3 -7 2 -7 -4 0 -6 -9 -9 -22 -5
-14 3 -19 1 -14 -6 5 -8 2 -10 -9 -6 -9 4 -22 -1 -31 -12 -9 -11 -13 -13 -9
-6 7 14 1 13 -110 -18 -40 -11 -59 -21 -57 -30 2 -10 0 -11 -10 -2 -15 12 -98
-3 -98 -18 0 -5 -10 -6 -22 -2 -16 4 -19 2 -13 -8 5 -9 4 -11 -4 -6 -6 4 -37
-1 -69 -10 -31 -10 -60 -18 -64 -18 -3 -1 -9 -4 -13 -8 -4 -4 -13 -4 -19 -2
-7 3 -18 -2 -25 -10 -6 -7 -20 -12 -29 -9 -10 2 -31 -1 -47 -8 -17 -7 -33 -12
-37 -11 -4 1 -20 -3 -35 -9 -15 -6 -37 -13 -48 -15 -59 -11 -115 -29 -115 -36
0 -4 -8 -4 -17 -1 -13 5 -15 2 -10 -12 6 -14 5 -16 -6 -7 -10 9 -17 8 -27 -1
-7 -7 -10 -7 -7 -1 4 7 -2 9 -18 6 -14 -2 -23 -7 -21 -11 2 -3 -6 -7 -17 -7
-25 -2 -37 -5 -144 -34 -43 -12 -80 -25 -83 -29 -3 -4 -12 -7 -20 -6 -27 0
-130 -28 -130 -35 0 -4 -8 -7 -17 -6 -11 0 -17 -5 -15 -13 2 -11 0 -12 -11 -3
-13 11 -73 1 -102 -16 -5 -3 -16 -7 -25 -8 -32 -4 -213 -55 -234 -66 -11 -6
-22 -10 -24 -9 -7 6 -114 -24 -123 -35 -6 -7 -16 -11 -24 -8 -7 3 -46 -5 -87
-17 -40 -12 -79 -24 -87 -25 -48 -9 -69 -18 -96 -42 -25 -23 -27 -23 -10 -3
l20 24 -25 -8 c-14 -4 -27 -12 -28 -16 -2 -5 -8 -7 -13 -3 -5 3 -26 0 -47 -7
-20 -7 -39 -14 -42 -14 -54 -10 -80 -18 -80 -25 0 -5 -7 -7 -15 -4 -8 4 -22 1
-30 -6 -8 -7 -15 -9 -15 -5 0 4 -7 2 -15 -5 -8 -7 -15 -9 -15 -5 0 4 -6 2 -13
-4 -8 -6 -17 -8 -20 -5 -3 4 -14 3 -24 -1 -10 -5 -27 -10 -38 -12 -11 -2 -27
-6 -35 -10 -8 -3 -21 -7 -28 -9 -61 -12 -181 -48 -178 -53 2 -3 -11 -6 -30 -7
-19 0 -34 1 -34 2 0 2 13 44 30 94 202 626 63 1336 -362 1845 -469 562 -1194
811 -1920 658 -56 -11 -78 -20 -78 -31 0 -12 436 -1652 486 -1827 l14 -51 700
-404 c449 -259 697 -407 690 -414 -5 -5 -24 -11 -41 -13 -18 -2 -40 -9 -48
-17 -9 -7 -22 -11 -29 -9 -7 3 -20 2 -30 -2 -9 -4 -24 -9 -32 -10 -8 -1 -46
-11 -85 -23 -38 -11 -89 -26 -113 -32 -23 -6 -40 -15 -37 -20 3 -5 0 -12 -6
-16 -8 -5 -9 -3 -4 5 5 9 -1 11 -21 8 -57 -10 -124 -29 -120 -36 2 -3 -8 -7
-22 -7 -42 -2 -87 -14 -90 -25 -2 -5 -8 -7 -13 -4 -8 6 -193 -41 -214 -53 -5
-4 -17 -8 -27 -9 -41 -6 -244 -65 -252 -73 -5 -5 -15 -6 -22 -3 -8 3 -14 0
-14 -7 0 -6 -4 -9 -9 -5 -12 7 -205 -45 -209 -57 -2 -4 -7 -6 -12 -3 -7 5
-105 -21 -125 -33 -5 -3 -16 -7 -25 -7 -40 -4 -80 -18 -75 -26 4 -5 -1 -6 -9
-3 -11 4 -116 -20 -224 -52 -7 -2 -11 -8 -7 -13 3 -6 -6 -8 -21 -5 -32 6 -94
-13 -94 -29 0 -7 -14 -100 -31 -207 -16 -107 -28 -203 -25 -213 2 -9 0 -15 -4
-12 -5 3 -9 -3 -9 -12 0 -24 -10 -118 -12 -118 -1 0 -3 -13 -4 -30 -1 -16 -5
-37 -8 -45 -5 -13 -16 -77 -32 -194 -3 -21 -7 -48 -10 -60 -2 -12 -7 -43 -10
-71 -3 -27 -8 -51 -10 -54 -3 -2 1 -11 8 -19 8 -11 9 -14 0 -9 -7 5 -12 1 -12
-10 0 -10 -7 -56 -14 -103 -8 -47 -15 -92 -16 -100 0 -8 -12 -82 -26 -165 -13
-82 -23 -154 -21 -160 2 -5 0 -17 -5 -26 -4 -8 -10 -38 -14 -65 -3 -27 -39
-265 -80 -529 -41 -264 -77 -502 -80 -530 -3 -27 -8 -57 -10 -65 -4 -14 -47
-290 -61 -395 -4 -27 -7 -69 -8 -92 -1 -23 -3 -41 -6 -40 -3 0 -44 -5 -92 -13
-69 -10 -88 -17 -88 -29 0 -29 58 -254 83 -325 14 -38 24 -74 22 -80 -2 -6 -6
-31 -9 -56 -3 -25 -11 -85 -20 -135 -21 -131 -28 -176 -31 -215 -2 -19 -5 -42
-8 -50 -12 -32 -68 -433 -63 -447 3 -8 11 -11 17 -7 8 4 9 3 5 -4 -4 -6 -13
-9 -20 -6 -10 4 -16 -11 -21 -58 -5 -35 -9 -72 -11 -83 -11 -64 -43 -275 -47
-305 -3 -19 -17 -109 -31 -199 -14 -90 -28 -178 -30 -195 -3 -17 -18 -120 -35
-229 -17 -109 -29 -203 -25 -208 3 -5 1 -15 -4 -22 -11 -15 -36 -166 -28 -174
3 -4 2 -11 -3 -17 -5 -6 -11 -38 -13 -71 -2 -33 -6 -62 -10 -65 -4 -3 -10 -30
-13 -60 -3 -30 -10 -80 -15 -110 -5 -30 -12 -71 -14 -90 -2 -19 -14 -95 -26
-168 -12 -74 -19 -136 -16 -139 3 -4 2 -11 -3 -17 -5 -6 -14 -51 -21 -101 -7
-49 -14 -97 -15 -105 -12 -67 -23 -140 -30 -205 -3 -22 -10 -64 -15 -94 -5
-30 -7 -58 -4 -63 3 -5 1 -14 -4 -21 -5 -7 -10 -19 -10 -27 0 -8 -5 -39 -10
-67 -5 -29 -7 -77 -5 -105 2 -38 1 -49 -7 -38 -5 8 -10 11 -10 5 0 -5 -6 -48
-14 -95 -19 -111 -54 -344 -60 -395 -5 -41 -24 -100 -25 -78 -1 19 -49 66 -60
59 -5 -4 -13 -1 -17 5 -4 7 -3 9 4 5 6 -3 13 -2 16 2 3 5 -16 32 -43 60 -26
29 -45 52 -43 52 3 0 -1 7 -8 15 -7 8 -16 12 -21 9 -5 -3 -8 -1 -7 5 4 15
-105 151 -117 147 -5 -2 -9 -8 -8 -14 2 -6 -4 -9 -12 -5 -14 5 -13 7 2 18 16
12 15 15 -12 46 -15 19 -32 33 -37 31 -5 -1 -7 2 -3 8 8 13 -14 42 -26 34 -5
-3 -8 0 -7 8 2 7 -4 12 -13 12 -9 -1 -16 5 -16 12 0 7 5 10 11 7 6 -4 -22 31
-61 78 -39 46 -76 83 -82 82 -6 -2 -8 3 -6 10 3 6 -12 31 -32 53 -21 23 -40
52 -42 65 -4 32 -80 340 -87 359 -4 8 -7 24 -8 35 -4 42 -50 214 -56 210 -4
-3 -5 7 -2 20 2 15 0 25 -7 25 -7 0 -10 4 -6 9 5 8 -76 361 -92 401 -3 8 -6
18 -5 21 1 4 -3 22 -9 40 -5 19 -23 93 -39 164 -17 72 -33 137 -37 145 -3 8
-7 20 -7 25 -8 60 -19 94 -29 88 -7 -3 -9 -3 -5 2 4 4 2 15 -5 23 -9 13 -9 14
1 8 13 -8 17 6 5 18 -4 3 -7 14 -8 24 -1 9 -10 52 -20 94 -17 72 -20 77 -42
73 -13 -2 -21 0 -18 6 4 5 10 7 15 4 22 -14 19 27 -11 148 -18 73 -35 134 -38
137 -3 3 -7 14 -7 25 -4 60 -23 127 -34 120 -5 -3 -12 0 -16 6 -4 8 -3 9 4 5
8 -4 12 0 12 12 0 32 -12 82 -19 78 -3 -2 -7 8 -7 22 -1 30 -9 68 -25 122 -6
19 -13 49 -15 65 -3 17 -10 32 -15 33 -5 2 -7 8 -4 12 8 12 -56 270 -65 265
-5 -3 -6 3 -3 14 2 10 -1 38 -8 62 -7 24 -14 51 -15 59 -14 76 -39 170 -46
170 -5 0 -6 4 -3 10 3 5 -1 35 -10 67 -9 32 -18 69 -21 83 -2 14 -7 32 -11 40
-3 8 -7 20 -7 25 -6 47 -19 96 -27 101 -5 3 -7 10 -4 15 4 5 3 14 -1 21 -4 7
-9 23 -10 35 -6 52 -28 133 -36 133 -5 0 -6 4 -3 10 3 5 -1 35 -10 67 -9 32
-18 69 -21 83 -5 27 -22 94 -30 123 -3 9 -9 15 -13 13 -4 -3 -8 1 -8 9 0 8 4
12 8 10 4 -3 1 21 -7 52 -7 32 -13 64 -14 71 0 7 -4 11 -8 8 -4 -3 -8 5 -8 17
0 34 -15 107 -22 107 -4 0 -8 17 -9 37 -1 21 -7 39 -13 41 -5 2 -8 8 -5 12 7
11 -24 151 -37 168 -6 6 -8 12 -5 12 5 0 -18 113 -30 140 -3 8 -7 24 -8 36 -5
31 -124 517 -132 534 -7 14 -8 25 -12 63 0 10 -5 15 -11 12 -6 -3 -7 1 -4 9 7
19 -37 206 -49 206 -4 0 -6 4 -3 9 8 13 -66 321 -76 315 -4 -3 -5 1 -2 9 3 8
0 35 -7 58 -7 24 -12 47 -11 52 1 4 -2 7 -7 7 -5 0 -7 9 -4 20 3 11 1 20 -3
20 -5 0 -10 16 -11 36 -1 20 -5 44 -9 53 -4 9 -8 23 -9 31 -7 52 -30 130 -38
130 -5 0 -7 6 -4 14 5 12 -43 224 -60 266 -3 8 -7 26 -9 40 -6 45 -37 165 -45
176 -5 6 -7 13 -4 15 2 3 -1 23 -7 45 -6 21 -13 42 -14 47 -1 4 -2 8 -3 10 -2
1 -4 13 -6 27 -2 14 -13 63 -25 110 -12 47 -23 92 -25 100 -2 8 -4 15 -5 15
-1 0 -3 9 -4 20 -7 53 -30 135 -38 135 -5 0 -7 4 -4 9 8 12 -15 111 -24 106
-4 -3 -6 6 -5 18 2 12 -10 74 -26 137 -16 63 -32 126 -34 140 -3 14 -8 32 -12
40 -3 8 -7 22 -9 30 -1 8 -5 24 -8 35 -2 11 -5 30 -5 43 -1 13 -5 20 -11 17
-5 -3 -7 0 -4 8 6 15 -33 176 -47 193 -5 6 -6 13 -3 16 3 3 -4 41 -16 84 -11
44 -23 90 -26 104 -2 14 -7 32 -10 40 -3 8 -8 29 -11 45 -2 17 -16 73 -29 125
-14 52 -27 104 -29 115 -18 79 -28 121 -33 130 -3 5 -7 16 -7 25 -4 37 -28
136 -36 146 -5 6 -7 13 -4 16 3 2 0 20 -6 39 -6 19 -12 45 -15 59 -3 14 -18
77 -34 140 -17 63 -32 127 -34 142 -3 15 -10 46 -17 70 -7 24 -14 50 -15 58
-14 70 -51 209 -55 205 -3 -3 -6 3 -6 13 1 45 -4 73 -10 69 -5 -3 -8 9 -9 27
0 18 -4 41 -9 52 -4 10 -10 30 -12 43 -2 14 -22 97 -44 185 -22 89 -42 172
-45 186 -3 14 -10 43 -16 65 -7 22 -12 42 -13 45 -15 76 -29 129 -34 126 -3
-2 -7 8 -8 22 -1 32 -6 54 -39 187 -32 129 -29 115 -54 225 -12 52 -29 120
-38 150 -17 61 -18 65 -20 98 -1 15 -6 21 -14 16 -7 -5 -8 -3 -4 5 11 17 -44
233 -63 249 -9 8 -10 11 -3 7 7 -4 12 0 12 9 0 9 -4 16 -9 16 -4 0 -6 12 -3
26 4 20 2 25 -8 19 -9 -5 -11 -4 -6 3 10 16 -33 183 -52 206 -11 13 -12 17 -3
11 11 -6 13 -3 8 16 -4 13 -7 30 -7 37 0 7 -4 11 -9 8 -4 -3 -6 6 -3 19 4 23
-5 31 -31 26 -5 -1 -6 3 -2 9 3 6 11 8 16 5 5 -4 9 -4 9 -1 0 11 -50 221 -56
236 -4 8 -8 25 -10 37 -1 13 -6 33 -10 45 -10 30 -11 34 -13 59 -1 15 -6 19
-16 15 -12 -4 -13 -2 -6 13 7 12 5 35 -5 72 -8 30 -16 63 -18 74 -10 62 -19
94 -25 91 -3 -2 -7 15 -8 37 -1 23 -6 43 -11 45 -5 1 -8 12 -5 22 3 12 0 20
-6 20 -7 0 -10 4 -7 9 3 5 -3 44 -13 88 -11 43 -20 72 -20 64 -1 -8 -4 -12 -7
-8 -9 9 13 42 28 42 31 0 257 59 253 66 -3 4 5 5 17 1 13 -3 19 -1 15 5 -4 6
3 9 16 6 12 -2 108 19 212 47 105 27 201 52 215 54 14 3 70 17 125 31 55 15
115 29 132 32 18 3 31 8 29 12 -2 3 8 7 22 7 15 1 38 4 52 7 14 4 48 12 75 19
51 13 68 25 58 42 -3 5 -1 6 6 2 6 -4 8 -12 5 -18 -5 -7 2 -9 21 -4 15 4 40
10 56 13 16 3 26 10 22 16 -3 6 -1 7 6 3 14 -9 121 14 121 25 0 5 8 8 18 7 30
-4 102 13 97 23 -4 5 1 6 9 3 8 -3 31 0 53 6 21 6 54 14 73 16 19 3 39 9 45
14 7 6 15 7 18 4 3 -3 12 -2 19 2 7 4 19 9 28 10 49 5 319 78 315 84 -3 5 4 6
15 3 11 -3 28 -2 37 2 10 5 24 7 32 6 7 -1 10 2 6 8 -3 7 0 8 9 5 9 -3 24 -3
34 1 9 4 26 9 37 10 25 4 145 34 165 42 8 3 29 7 45 9 17 3 32 9 33 14 2 6 8
8 13 5 5 -3 28 0 51 6 24 7 46 12 51 11 4 -1 7 1 7 6 0 4 16 8 36 9 20 1 41 6
47 12 5 5 16 7 25 4 9 -4 13 -2 9 4 -4 7 0 10 10 7 10 -2 74 11 143 29 90 23
124 36 122 46 -2 11 0 12 11 3 14 -12 80 -6 73 7 -2 3 14 7 36 8 23 0 43 5 47
11 3 5 14 8 24 6 17 -2 98 17 137 33 8 3 19 5 24 4 5 -1 16 1 25 5 9 4 21 8
26 8 45 6 96 19 100 26 3 5 13 6 22 3 10 -4 14 -2 10 4 -3 5 3 9 15 8 24 -2
426 98 455 113 10 5 23 8 28 6 6 -2 69 12 140 30 89 23 129 37 127 46 -2 10 1
10 14 -1 13 -11 18 -11 21 -1 3 6 9 10 14 7 8 -6 75 8 109 22 8 3 21 5 28 4 6
-1 12 3 12 9 0 6 4 9 9 5 11 -6 311 66 306 75 -1 3 16 6 38 7 23 1 43 6 45 12
2 5 10 7 18 4 7 -3 28 0 46 7 18 6 47 14 63 17 17 3 35 9 41 14 6 5 13 7 16 4
2 -3 20 0 39 6 19 5 46 12 60 14 14 2 61 13 105 25 43 11 88 23 98 25 10 2 55
14 100 26 45 11 92 23 106 25 46 9 325 82 313 83 -6 1 -17 3 -25 5 -7 2 -51
-6 -98 -17z m-4633 -1152 c0 -8 -4 -12 -9 -9 -5 3 -6 10 -3 15 9 13 12 11 12
-6z m16192 -1018 c-13 -13 -26 -21 -29 -19 -5 4 38 42 48 42 3 0 -6 -10 -19
-23z m9 -21 c-7 -8 -15 -12 -17 -11 -5 6 10 25 20 25 5 0 4 -6 -3 -14z m-687
-213 c13 -16 12 -17 -3 -4 -17 13 -22 21 -14 21 2 0 10 -8 17 -17z m-16583
-58 c-3 -3 -9 2 -12 12 -6 14 -5 15 5 6 7 -7 10 -15 7 -18z m16267 -25 c-3 -5
-1 -10 6 -10 7 0 10 -3 6 -6 -9 -9 -28 6 -22 17 4 5 8 9 11 9 3 0 2 -4 -1 -10z
m-640 -129 c-9 -8 -36 -10 -30 -2 2 4 11 8 20 8 8 0 13 -3 10 -6z m-215 -105
c0 -2 -8 -10 -17 -17 -16 -13 -17 -12 -4 4 13 16 21 21 21 13z m-369 -63 c13
-16 12 -17 -3 -4 -17 13 -22 21 -14 21 2 0 10 -8 17 -17z m69 -47 c0 -2 -7 -7
-16 -10 -8 -3 -12 -2 -9 4 6 10 25 14 25 6z m-1145 -326 c3 -6 -1 -7 -9 -4
-18 7 -21 14 -7 14 6 0 13 -4 16 -10z m-844 -173 c-10 -9 -11 -8 -5 6 3 10 9
15 12 12 3 -3 0 -11 -7 -18z m-344 -92 c0 -8 -4 -12 -9 -9 -5 3 -6 10 -3 15 9
13 12 11 12 -6z m-12471 -55 c0 -12 -4 -16 -9 -11 -5 5 -6 14 -3 20 10 15 12
14 12 -9z m12514 -14 c0 -2 -7 -7 -16 -10 -8 -3 -12 -2 -9 4 6 10 25 14 25 6z
m-505 -66 c-3 -5 -12 -10 -18 -10 -7 0 -6 4 3 10 19 12 23 12 15 0z m-485
-154 c0 -2 -7 -7 -16 -10 -8 -3 -12 -2 -9 4 6 10 25 14 25 6z m-83 -108 c-3
-8 -6 -5 -6 6 -1 11 2 17 5 13 3 -3 4 -12 1 -19z m-11412 -8 c-3 -5 -12 -10
-18 -10 -7 0 -6 4 3 10 19 12 23 12 15 0z m11375 -36 c0 -8 -19 -13 -24 -6 -3
5 1 9 9 9 8 0 15 -2 15 -3z m-141 -257 c8 -10 7 -14 -2 -14 -8 0 -14 6 -14 14
0 7 1 13 2 13 2 0 8 -6 14 -13z m-139 -201 c0 -2 -8 -10 -17 -17 -16 -13 -17
-12 -4 4 13 16 21 21 21 13z m-286 -183 c4 -11 1 -11 -14 -3 -24 13 -25 17 -5
17 8 0 16 -6 19 -14z m-44 -34 c0 -5 -4 -9 -8 -9 -5 0 -9 7 -9 15 0 8 4 12 9
9 4 -3 8 -9 8 -15z m-10466 -247 c3 -5 -1 -9 -9 -9 -8 0 -12 4 -9 9 3 4 7 8 9
8 2 0 6 -4 9 -8z m10091 -151 c-9 -8 -36 -10 -30 -2 2 4 11 8 20 8 8 0 13 -3
10 -6z m-65 -35 c0 -2 -7 -7 -16 -10 -8 -3 -12 -2 -9 4 6 10 25 14 25 6z m4
-32 c3 -8 2 -12 -4 -9 -6 3 -10 10 -10 16 0 14 7 11 14 -7z m33 -59 c0 -8 -4
-12 -9 -9 -5 3 -6 10 -3 15 9 13 12 11 12 -6z m-123 -13 c3 -5 -1 -9 -9 -9 -8
0 -12 4 -9 9 3 4 7 8 9 8 2 0 6 -4 9 -8z m-829 -330 c-3 -3 -11 0 -18 7 -9 10
-8 11 6 5 10 -3 15 -9 12 -12z m142 -57 c0 -8 -4 -12 -9 -9 -5 3 -6 10 -3 15
9 13 12 11 12 -6z m-1307 -249 c0 -2 -6 -9 -14 -15 -11 -9 -16 -9 -22 0 -4 7
-3 9 4 5 6 -3 13 -2 17 4 6 10 15 14 15 6z m-7573 -591 c0 -8 -4 -12 -9 -9 -5
3 -6 10 -3 15 9 13 12 11 12 -6z m4662 -228 c8 -10 7 -14 -2 -14 -8 0 -14 6
-14 14 0 7 1 13 2 13 2 0 8 -6 14 -13z m-4634 -116 c3 -5 2 -12 -3 -15 -5 -3
-9 1 -9 9 0 17 3 19 12 6z m401 -1443 c3 -4 -1 -5 -10 -4 -8 1 -18 5 -22 8 -3
4 1 5 10 4 8 -1 18 -5 22 -8z m75 -361 c-10 -9 -11 -8 -5 6 3 10 9 15 12 12 3
-3 0 -11 -7 -18z m54 -218 c11 -16 1 -19 -13 -3 -7 8 -8 14 -3 14 5 0 13 -5
16 -11z m135 -575 c0 -8 -19 -13 -24 -6 -3 5 1 9 9 9 8 0 15 -2 15 -3z m304
-1142 c3 -5 -1 -9 -9 -9 -8 0 -12 4 -9 9 3 4 7 8 9 8 2 0 6 -4 9 -8z m406
-1646 c0 -2 -8 -10 -17 -17 -16 -13 -17 -12 -4 4 13 16 21 21 21 13z m868
-2691 c-3 -3 -9 2 -12 12 -6 14 -5 15 5 6 7 -7 10 -15 7 -18z m183 -182 c13
-16 12 -17 -3 -4 -17 13 -22 21 -14 21 2 0 10 -8 17 -17z"/>
<path d="M9345 15603 c-11 -2 -27 -7 -35 -10 -8 -3 -19 -7 -25 -7 -49 -7 -95
-19 -95 -27 0 -4 -7 -6 -15 -3 -8 3 -20 2 -27 -2 -7 -5 -20 -9 -28 -11 -53 -7
-130 -27 -130 -33 0 -4 -8 -7 -17 -7 -35 2 -103 -15 -98 -24 4 -5 -1 -6 -9 -3
-14 5 -276 -54 -286 -65 -3 -3 -21 -7 -40 -9 -19 -1 -37 -7 -38 -12 -2 -6 -7
-8 -11 -5 -7 4 -282 -59 -391 -90 -3 -1 -24 -5 -47 -9 -24 -4 -45 -12 -49 -17
-3 -5 -10 -7 -15 -4 -5 4 -14 3 -21 -1 -7 -4 -26 -9 -42 -11 -17 -2 -35 -8
-41 -15 -7 -8 -4 -9 12 -5 13 3 26 0 30 -5 4 -7 1 -8 -7 -3 -8 5 -11 4 -6 -3
9 -15 38 -3 29 12 -4 8 -3 8 6 0 12 -11 55 -5 101 13 8 3 18 6 21 5 4 -1 22 3
40 9 19 6 43 12 54 14 96 21 125 29 125 34 0 3 17 7 37 8 21 1 39 6 41 12 2 5
9 8 15 6 15 -6 189 39 182 46 -3 3 9 3 26 1 24 -4 30 -2 24 8 -5 9 -4 11 3 6
14 -9 153 24 146 35 -2 4 1 11 7 15 8 5 9 3 4 -5 -8 -14 20 -11 93 8 29 8 40
16 35 24 -5 9 -3 9 9 0 8 -7 17 -10 21 -7 3 3 16 7 29 8 41 5 133 28 144 37 6
5 13 6 16 3 3 -3 22 1 41 10 19 8 37 12 40 10 3 -3 21 2 42 10 20 9 39 15 43
15 24 -4 52 2 48 10 -3 4 6 7 19 5 14 -1 27 1 30 6 8 12 -18 27 -40 23z"/>
<path d="M14695 14710 c-462 -114 -1969 -486 -3350 -825 -1380 -340 -2511
-619 -2511 -619 -2 -2 65 -528 68 -536 2 -4 606 145 1343 330 4565 1149 5290
1332 5294 1336 8 8 13 524 5 523 -5 0 -387 -94 -849 -209z"/>
<path d="M13846 12643 c-6 -14 -5 -15 5 -6 7 7 10 15 7 18 -3 3 -9 -2 -12 -12z"/>
<path d="M5315 12376 c-181 -59 -346 -141 -502 -248 -87 -59 -263 -205 -263
-217 0 -4 302 -308 671 -676 369 -369 668 -661 665 -650 -3 11 -111 416 -241
900 -267 998 -244 915 -253 915 -4 -1 -38 -11 -77 -24z"/>
<path d="M14020 10277 l0 -1332 170 -170 170 -170 0 -2696 0 -2697 204 -196
203 -196 802 0 801 0 0 3693 c0 2030 3 3843 6 4027 l6 335 -377 368 -378 367
-803 0 -804 0 0 -1333z"/>
<path d="M12233 9086 c0 -8 6 -12 15 -8 9 3 13 1 9 -5 -4 -6 -2 -13 5 -15 6
-2 12 -11 14 -20 1 -11 -3 -15 -12 -11 -12 4 -14 -182 -14 -1283 0 -709 3
-1299 6 -1311 4 -13 13 -23 21 -23 8 0 11 -4 8 -10 -3 -5 -1 -10 4 -10 8 0 11
-566 11 -1888 l0 -1887 225 -225 225 -225 -1 3225 -1 3225 -226 217 c-231 222
-281 268 -286 268 -1 0 -3 -6 -3 -14z"/>
<path d="M10458 6563 c-10 -19 -9 -75 1 -87 15 -18 21 -4675 6 -4669 -6 2 -11
-9 -10 -26 0 -23 3 -27 13 -19 11 9 11 13 0 19 -7 5 -8 9 -2 9 19 0 24 -13 12
-28 -11 -12 0 -27 67 -89 44 -41 92 -83 108 -94 l27 -20 0 2409 0 2410 -95 83
c-53 46 -102 85 -110 87 -9 2 -13 8 -10 13 4 5 4 9 1 9 -3 0 -6 -3 -8 -7z m26
-68 c17 -25 16 -25 -4 -13 -11 7 -20 18 -20 25 0 19 6 16 24 -12z"/>
<path d="M7922 3616 c-2 -644 -5 -1172 -5 -1172 -1 -1 -85 73 -187 163 -102
91 -194 169 -205 173 -11 4 -92 6 -180 4 -88 -2 -445 -4 -792 -4 l-633 0 0
-927 1 -928 367 -326 367 -326 5 926 5 926 95 1 c123 2 279 -8 257 -15 -16 -6
-16 -8 3 -24 17 -14 20 -14 20 -2 0 8 5 15 10 15 7 0 10 -263 10 -811 -1 -719
-3 -810 -16 -805 -11 4 -14 1 -10 -12 3 -9 1 -24 -5 -32 -8 -12 -9 -9 -4 9 4
13 3 21 -2 18 -11 -7 -11 38 0 49 4 5 5 0 1 -11 -7 -18 -6 -19 10 -5 10 8 14
16 10 17 -5 2 -9 351 -9 775 l0 773 -5 -770 c-3 -531 -8 -769 -16 -768 -12 2
-13 -81 -1 -93 11 -11 9 -26 -3 -19 -6 4 -7 -1 -3 -11 5 -13 10 -8 26 22 36
71 185 290 268 394 107 135 288 320 412 423 123 102 294 220 302 207 3 -5 2
-11 -2 -13 -5 -3 -6 -265 -3 -584 l5 -578 128 -3 127 -3 0 496 c0 272 3 495 6
495 3 0 88 -74 189 -165 101 -91 186 -165 189 -165 3 0 6 722 6 1604 l0 1604
-150 132 c-136 120 -172 155 -138 134 7 -4 8 -3 4 5 -4 6 -11 9 -16 6 -5 -3
-73 52 -152 122 -79 70 -174 155 -213 189 l-70 62 -3 -1172z m-479 -1493 c-13
-2 -35 -2 -50 0 -16 2 -5 4 22 4 28 0 40 -2 28 -4z m424 1 c-3 -3 -12 -4 -19
-1 -8 3 -5 6 6 6 11 1 17 -2 13 -5z m184 -663 c-8 -5 -10 -14 -6 -22 6 -11 5
-11 -5 -2 -11 10 -11 15 0 28 7 8 15 13 19 10 3 -3 -1 -10 -8 -14z"/>
<path d="M8463 4779 c16 -9 18 -29 17 -217 -1 -148 2 -206 10 -204 6 1 9 -2 5
-8 -3 -6 -10 -8 -15 -5 -5 3 -12 0 -16 -6 -5 -8 -3 -9 5 -5 8 5 11 3 9 -7 -2
-8 39 -52 94 -101 l97 -86 799 2 799 3 -160 140 c-88 77 -252 222 -365 323
l-206 182 -546 0 c-382 -1 -540 -4 -527 -11z m52 -469 c-3 -5 -12 -10 -18 -10
-7 0 -6 4 3 10 19 12 23 12 15 0z m53 -37 c-8 -10 -14 -10 -24 -2 -18 15 -18
15 11 15 19 0 22 -3 13 -13z m15 -28 c-3 -9 -8 -14 -10 -11 -3 3 -2 9 2 15 9
16 15 13 8 -4z"/>
<path d="M8420 4616 c0 -85 -3 -162 -7 -172 -5 -13 -3 -15 7 -9 10 6 12 4 7
-8 -3 -9 -2 -19 2 -21 5 -3 9 78 10 179 1 124 -1 185 -8 185 -7 0 -11 -53 -11
-154z"/>
<path d="M8349 4518 c-5 -18 -6 -38 -1 -34 7 8 12 36 6 36 -2 0 -4 -1 -5 -2z"/>
<path d="M8404 4386 c24 -19 36 -20 36 -4 0 6 -3 8 -6 5 -4 -3 -16 -2 -28 4
-20 10 -20 10 -2 -5z"/>
<path d="M2780 4120 c0 -5 5 -10 11 -10 5 0 7 5 4 10 -3 6 -8 10 -11 10 -2 0
-4 -4 -4 -10z"/>
</g>
</svg>
