<?xml version="1.0" standalone="no"?>
<!DOCTYPE svg PUBLIC "-//W3C//DTD SVG 20010904//EN"
 "http://www.w3.org/TR/2001/REC-SVG-20010904/DTD/svg10.dtd">
<svg version="1.0" xmlns="http://www.w3.org/2000/svg"
 width="600.000000pt" height="600.000000pt" viewBox="0 0 600.000000 600.000000"
 preserveAspectRatio="xMidYMid meet">

<g transform="translate(0.000000,600.000000) scale(0.100000,-0.100000)"
fill="#000000" stroke="none">
<path d="M2723 5980 c-532 -52 -1029 -234 -1460 -536 -202 -143 -469 -386
-475 -433 -2 -18 -9 -26 -21 -24 -26 2 -157 -159 -279 -342 -175 -262 -319
-585 -398 -888 -70 -270 -82 -366 -87 -691 -6 -323 2 -434 47 -656 52 -260
129 -487 245 -725 436 -889 1274 -1503 2255 -1650 154 -23 438 -37 585 -28
l130 8 3 63 c2 34 8 62 13 62 6 0 9 12 7 28 l-3 27 -200 5 c-187 5 -203 7
-250 29 -63 32 -124 92 -155 156 -24 48 -25 58 -28 293 l-3 242 -28 0 c-15 0
-54 7 -86 15 -217 55 -393 231 -450 450 -19 73 -22 215 -5 287 20 86 83 207
143 273 l55 60 -29 25 c-26 23 -28 31 -29 93 0 38 -4 67 -10 67 -5 0 -10 10
-10 23 0 17 12 27 53 45 74 32 177 112 224 174 61 80 96 145 83 153 -6 4 -12
5 -14 4 -1 -2 -23 -34 -49 -71 -139 -198 -395 -295 -640 -243 -117 25 -211 77
-303 169 -89 89 -141 179 -170 296 -23 90 -15 261 16 349 30 84 108 198 178
261 70 63 194 125 285 142 l67 13 0 37 c0 31 4 38 20 38 18 0 20 7 20 80 0 47
-4 80 -10 80 -5 0 -10 18 -10 40 0 22 -4 40 -9 40 -6 0 -11 14 -13 32 -3 33
-43 66 -81 67 -21 1 -47 24 -47 41 0 11 -24 40 -33 40 -3 0 -7 -10 -11 -22 -5
-20 -8 -21 -17 -8 -8 11 -12 12 -16 3 -6 -16 -103 -18 -103 -3 0 6 -9 10 -20
10 -17 0 -20 -7 -20 -50 0 -27 -4 -50 -10 -50 -5 0 -10 -9 -10 -20 0 -13 -7
-20 -20 -20 -11 0 -20 -4 -20 -10 0 -5 -7 -10 -15 -10 -10 0 -15 10 -15 30 0
26 4 30 26 30 23 0 54 20 54 34 0 3 -11 6 -25 6 -14 0 -25 -4 -25 -10 0 -5 -9
-10 -20 -10 -11 0 -20 -4 -20 -10 0 -5 -7 -10 -15 -10 -8 0 -15 -4 -15 -10 0
-5 -9 -10 -20 -10 -11 0 -20 -4 -20 -10 0 -5 -13 -10 -30 -10 -16 0 -30 -4
-30 -10 0 -5 -18 -10 -40 -10 -39 0 -40 -1 -40 -37 l0 -37 -28 27 c-27 26 -72
37 -72 17 0 -5 -11 -10 -25 -10 -31 0 -31 5 0 36 14 14 23 30 20 35 -4 5 3 9
14 9 14 0 21 6 21 20 0 22 25 28 33 8 3 -9 10 -7 21 7 15 20 15 19 16 -7 0
-21 5 -28 20 -28 11 0 20 5 20 10 0 6 9 10 20 10 11 0 20 5 20 10 0 6 14 10
30 10 23 0 30 4 30 20 0 11 5 20 10 20 6 0 10 5 10 10 0 6 -7 10 -15 10 -9 0
-27 11 -40 25 -25 24 -33 55 -15 55 6 0 10 9 10 20 0 13 -7 20 -20 20 -11 0
-20 5 -20 10 0 6 -16 10 -35 10 -19 0 -35 3 -35 6 0 12 29 34 45 34 22 0 54
32 37 38 -6 2 -12 9 -12 16 0 18 65 86 83 86 8 0 18 6 21 13 5 10 7 10 12 0 7
-15 44 -17 44 -3 0 6 9 10 20 10 13 0 20 7 20 20 0 15 -7 20 -25 20 -42 0 -75
41 -75 95 l0 45 50 0 c31 0 50 4 50 12 0 6 8 1 19 -10 10 -12 21 -22 25 -22
12 0 6 75 -9 103 -13 25 -12 30 2 47 12 13 24 18 40 14 29 -8 73 3 73 17 0 34
42 42 198 40 49 -1 52 -3 52 -26 0 -18 5 -25 19 -25 11 0 30 -13 44 -29 13
-16 35 -31 48 -33 19 -2 33 -22 71 -98 51 -103 125 -194 209 -256 37 -27 53
-34 62 -25 19 19 37 12 37 -13 0 -21 9 -28 56 -45 30 -12 74 -26 97 -31 66
-15 240 -12 320 6 51 12 72 13 75 5 2 -6 12 -11 23 -11 10 0 19 -4 19 -10 0
-5 9 -10 20 -10 11 0 20 -4 20 -10 0 -15 29 -12 46 5 23 23 -4 45 -55 45 -55
0 -53 20 4 48 37 18 45 19 45 7 0 -8 -9 -15 -20 -15 -11 0 -20 -4 -20 -10 0
-5 18 -10 40 -10 22 0 40 5 40 10 0 6 9 10 20 10 11 0 20 -4 20 -10 0 -5 5
-10 10 -10 6 0 10 16 10 35 0 38 35 85 64 85 19 0 27 90 8 97 -8 4 -9 9 -3 17
11 14 81 9 81 -5 0 -5 14 -9 30 -9 17 0 30 5 30 10 0 6 -4 10 -10 10 -5 0 -10
23 -10 50 0 43 -3 50 -19 50 -17 0 -19 4 -10 33 5 17 18 39 29 49 21 17 27 38
10 38 -5 0 -10 10 -11 23 0 13 -7 2 -19 -30 -42 -118 -132 -241 -228 -311 -87
-63 -128 -84 -222 -113 -98 -30 -283 -33 -374 -5 -186 56 -340 185 -421 351
-50 103 -65 176 -65 308 0 96 4 130 25 194 33 105 87 194 165 273 119 121 263
186 440 199 291 22 574 -164 677 -447 14 -37 27 -99 30 -139 l6 -72 49 -6 c43
-6 50 -11 63 -41 8 -19 18 -34 22 -34 5 0 14 -13 20 -30 6 -16 18 -30 27 -30
19 0 34 22 18 28 -18 6 -15 59 4 66 26 10 145 -6 151 -20 7 -20 131 -16 143 5
5 9 10 11 10 4 0 -18 55 -40 148 -59 50 -11 82 -22 82 -30 0 -33 -13 -44 -51
-44 -21 0 -39 -4 -39 -10 0 -5 -9 -10 -20 -10 -11 0 -20 -4 -20 -10 0 -5 -9
-10 -20 -10 -11 0 -20 -4 -20 -10 0 -5 -9 -10 -20 -10 -11 0 -20 -4 -20 -10 0
-5 -24 -10 -54 -10 -54 0 -80 -12 -51 -24 22 -8 18 -36 -5 -36 -11 0 -20 -4
-20 -10 0 -5 -13 -10 -30 -10 -26 0 -30 -4 -30 -26 0 -14 -6 -32 -14 -40 -17
-16 -46 -19 -46 -4 0 6 -9 10 -20 10 -11 0 -20 5 -20 10 0 6 -16 10 -35 10
-19 0 -35 5 -35 10 0 6 -13 10 -30 10 -16 0 -30 5 -30 10 0 6 -9 10 -20 10
-16 0 -20 -7 -20 -30 0 -27 3 -30 33 -30 18 0 39 -6 46 -12 11 -10 14 -10 18
0 8 22 43 12 79 -23 31 -31 33 -37 20 -50 -8 -8 -21 -15 -29 -15 -9 0 -18 -6
-20 -12 -4 -10 -6 -10 -6 0 -1 7 -14 12 -31 12 -16 0 -30 5 -30 10 0 6 -13 10
-30 10 -16 0 -30 5 -30 10 0 6 -13 10 -30 10 -21 0 -30 -5 -30 -16 0 -20 -24
-44 -44 -44 -9 0 -16 -4 -16 -10 0 -5 -12 -10 -26 -10 -42 0 -75 -50 -41 -63
9 -4 8 -8 -3 -17 -11 -9 -12 -13 -2 -17 7 -3 12 -24 12 -54 0 -38 4 -49 16
-49 22 0 53 -32 36 -38 -17 -5 -15 -42 3 -42 8 0 15 4 15 10 0 5 11 20 25 34
14 14 25 37 25 51 0 20 -5 25 -25 25 -23 0 -25 3 -25 49 0 73 10 111 29 111 9
0 23 9 31 20 8 12 26 20 42 20 18 0 29 -6 33 -20 7 -22 50 -28 58 -7 4 10 6
10 6 0 1 -8 14 -13 31 -13 17 0 30 -4 30 -10 0 -5 9 -10 20 -10 17 0 20 -7 20
-40 0 -22 5 -40 10 -40 6 0 10 -7 10 -16 0 -23 25 -44 53 -44 14 0 27 -6 30
-12 3 -9 18 -3 48 18 64 45 126 75 194 94 69 20 79 37 41 75 -21 21 -34 25
-86 25 -53 0 -60 2 -60 20 0 11 -4 20 -10 20 -5 0 -10 9 -10 20 0 11 -4 20
-10 20 -5 0 -10 9 -10 20 0 11 -4 20 -10 20 -18 0 -10 31 15 55 13 14 36 25
50 25 27 0 55 20 55 39 0 6 9 11 20 11 11 0 20 7 20 15 0 10 10 15 29 15 16 0
31 5 33 11 2 7 41 15 93 19 50 4 82 8 73 9 -17 1 -24 21 -13 33 11 10 105 -15
105 -28 0 -8 16 -16 40 -20 30 -5 40 -11 40 -25 0 -10 4 -20 9 -24 15 -9 23
13 12 32 -14 26 10 53 47 53 19 0 32 -6 37 -17 6 -17 7 -17 16 0 9 15 26 17
124 17 l113 0 36 -35 c20 -19 36 -39 36 -43 0 -12 46 -32 75 -32 13 0 30 -7
39 -15 25 -26 42 -17 55 28 34 112 122 250 212 331 l48 43 -109 115 c-173 182
-363 340 -562 466 l-97 62 -131 0 -130 0 0 -60 0 -60 -240 0 -240 0 0 150 0
150 183 2 182 3 -85 33 c-186 73 -441 137 -665 167 -141 19 -527 28 -662 15z
m376 -167 c1 -31 24 -49 73 -57 48 -8 39 -21 -24 -31 -38 -7 -41 -10 -53 -73
-9 -42 -22 -33 -30 22 -7 43 -8 44 -51 51 -72 10 -68 24 12 40 28 5 32 11 38
47 4 23 10 46 13 51 8 13 21 -18 22 -50z m-1479 -278 c0 -8 7 -15 15 -15 8 0
15 -8 15 -18 0 -15 -6 -18 -29 -14 -45 6 -46 -15 -1 -38 33 -17 40 -25 40 -50
0 -19 -7 -34 -20 -42 -11 -7 -20 -18 -20 -25 0 -7 -9 -13 -20 -13 -11 0 -20 6
-20 14 0 8 -11 17 -25 20 -39 10 -21 37 24 34 47 -4 48 16 1 40 -43 21 -53 64
-21 84 12 7 21 18 21 25 0 7 9 13 20 13 11 0 20 -7 20 -15z m-110 -242 c14 -9
29 -23 33 -30 5 -8 19 -10 40 -6 31 6 32 6 14 -14 -17 -20 -17 -21 5 -27 21
-6 21 -7 6 -17 -14 -8 -18 -24 -18 -77 0 -111 -55 -200 -147 -239 -54 -22
-160 -17 -221 12 -51 23 -102 68 -102 88 0 6 21 8 55 4 57 -6 68 0 36 20 -10
6 -23 25 -29 42 -11 32 -5 40 15 20 8 -8 9 3 6 38 -5 45 -4 47 11 28 15 -19
15 -19 16 15 1 63 13 64 54 8 32 -46 36 -49 30 -23 -4 17 -7 32 -6 35 1 53 6
66 41 101 34 35 44 39 88 39 29 0 58 -7 73 -17z m2728 -9 c12 -4 22 -13 22
-20 0 -10 -14 -14 -50 -14 -43 0 -50 3 -50 20 0 21 30 26 78 14z m-178 -22 c0
-14 -12 -21 -45 -29 -24 -6 -47 -8 -50 -5 -16 16 0 31 43 40 26 5 48 10 50 11
1 0 2 -7 2 -17z m398 -26 c3 -4 1 -10 -4 -16 -15 -15 -94 11 -94 32 0 16 4 16
46 3 25 -7 49 -16 52 -19z m-608 -23 c23 6 36 -21 14 -30 -14 -5 -13 -8 7 -18
21 -12 21 -13 3 -18 -33 -10 -134 -20 -134 -13 0 3 19 31 43 61 35 46 43 52
45 34 3 -15 9 -19 22 -16z m767 -50 c12 -8 19 -21 16 -29 -4 -12 -9 -12 -31 0
-46 25 -65 43 -58 55 7 11 23 6 73 -26z m181 -140 c11 -35 18 -63 14 -63 -4 1
-36 16 -72 34 -56 29 -61 34 -42 41 18 5 21 10 12 20 -15 18 6 31 25 15 10 -9
15 -6 20 10 9 29 18 17 43 -57z m-3228 -228 c0 -3 -17 -30 -37 -61 -33 -49
-38 -54 -49 -39 -7 9 -17 14 -23 11 -15 -10 -24 13 -11 29 10 12 9 16 -4 21
-28 11 -18 20 32 31 55 12 92 15 92 8z m-603 -24 c13 -13 43 -21 111 -28 51
-6 95 -13 98 -16 3 -2 2 -28 -2 -56 -5 -41 -10 -51 -25 -51 -16 0 -17 -3 -8
-19 16 -24 4 -53 -18 -49 -22 4 -30 47 -11 59 9 6 5 9 -14 9 -35 0 -59 -10
-52 -21 3 -5 2 -18 -1 -30 -10 -29 -49 -22 -53 11 -2 14 -8 30 -14 37 -5 7 -7
17 -3 23 3 6 1 35 -5 66 -9 40 -16 54 -26 50 -16 -6 -28 9 -19 24 9 15 22 12
42 -9z m-37 -131 c0 -20 -6 -33 -17 -36 -85 -27 -113 -60 -113 -132 0 -37 6
-50 34 -78 19 -19 48 -37 65 -40 26 -5 31 -11 31 -35 0 -36 -9 -40 -56 -28
-175 48 -194 284 -29 360 22 10 50 19 63 19 18 0 22 -5 22 -30z m450 -18 c-23
-40 -51 -64 -66 -58 -13 5 -11 13 16 46 19 24 36 37 45 34 11 -4 12 -11 5 -22z
m-521 -149 c-1 -37 -1 -37 -8 -8 -7 28 -5 45 5 45 2 0 3 -17 3 -37z m75 26
c10 9 16 9 21 1 5 -8 10 -8 20 0 9 8 15 8 20 0 3 -6 11 -7 17 -4 6 4 8 2 4 -4
-3 -6 -2 -13 4 -17 5 -3 10 -12 10 -18 0 -7 -4 -6 -10 3 -5 8 -10 10 -10 4 0
-6 -6 -11 -14 -11 -8 0 -12 6 -9 14 8 21 -11 15 -25 -8 -11 -17 -16 -18 -28
-8 -11 9 -18 9 -26 1 -13 -13 -38 2 -38 22 0 22 22 37 37 25 9 -8 17 -8 27 0z
m338 -32 c0 -4 -7 -25 -16 -47 -11 -27 -20 -38 -30 -34 -15 6 -11 27 15 75 10
19 30 23 31 6z m2088 -51 c0 -11 -9 -16 -30 -16 -34 0 -36 6 -14 38 13 19 17
20 30 8 8 -8 14 -22 14 -30z m-2049 -36 c14 0 19 -7 19 -30 0 -23 -4 -30 -20
-30 -11 0 -20 4 -20 9 0 5 -2 24 -5 42 -3 19 -3 28 1 22 3 -7 14 -13 25 -13z
m1909 -100 c0 -11 -7 -20 -15 -20 -8 0 -15 -4 -15 -10 0 -5 -8 -10 -17 -10
-13 0 -10 7 12 30 34 36 35 36 35 10z m-2010 -2 c0 -42 -14 -88 -26 -88 -15 0
-18 38 -8 78 7 23 34 31 34 10z m-85 -153 c-9 -32 -18 -55 -20 -53 -3 2 3 30
12 61 9 32 18 55 20 53 3 -3 -3 -30 -12 -61z m-69 -26 c56 -99 85 -162 80
-176 -4 -9 -16 -12 -44 -7 -49 8 -114 -10 -129 -35 -11 -17 -10 -19 1 -15 8 3
19 -3 25 -15 16 -28 14 -39 -9 -51 -18 -9 -23 -6 -41 25 -14 24 -27 34 -37 30
-8 -3 -21 0 -28 6 -7 6 -17 8 -22 5 -5 -3 -18 2 -30 10 -23 16 -30 58 -11 69
6 4 8 13 5 21 -3 9 10 20 37 32 56 25 111 74 131 117 9 19 23 35 30 35 7 0 26
-23 42 -51z m184 22 c0 -5 -9 -13 -20 -16 -31 -10 -29 -82 3 -95 13 -5 16 -9
7 -10 -8 0 -25 -3 -37 -6 -16 -4 -23 -2 -23 8 0 8 -12 19 -27 25 l-28 12 28
-6 c25 -5 28 -3 25 13 -3 13 -11 18 -28 17 -18 -2 -7 8 35 32 68 39 65 38 65
26z m-573 -373 c-3 -7 -5 -2 -5 12 0 14 2 19 5 13 2 -7 2 -19 0 -25z m433 26
c0 -14 -31 -34 -54 -34 -14 0 -26 -5 -26 -11 0 -5 -4 -7 -10 -4 -5 3 -10 17
-10 31 0 22 4 24 50 24 28 0 50 -3 50 -6z m170 -1568 c21 -63 20 -77 -5 -56
-12 10 -15 10 -15 -4 0 -9 -7 -16 -15 -16 -8 0 -15 7 -15 15 0 18 -5 18 -31 5
-10 -6 -19 -8 -19 -6 0 18 66 134 72 128 4 -4 17 -34 28 -66z m870 -11 c0 -16
-6 -25 -15 -25 -28 0 -18 40 13 49 1 1 2 -10 2 -24z m-1203 -101 c-3 -3 -12
-4 -19 -1 -8 3 -5 6 6 6 11 1 17 -2 13 -5z m70 0 c-3 -3 -12 -4 -19 -1 -8 3
-5 6 6 6 11 1 17 -2 13 -5z m-127 -17 c0 -2 -12 -14 -27 -28 l-28 -24 24 28
c23 25 31 32 31 24z m108 -4 c-10 -2 -28 -2 -40 0 -13 2 -5 4 17 4 22 1 32 -1
23 -4z m122 -75 c0 -7 -6 -4 -12 7 -6 11 -20 31 -32 45 -11 14 -6 11 12 -7 17
-18 32 -38 32 -45z m-220 59 c0 -2 -10 -12 -22 -23 l-23 -19 19 23 c18 21 26
27 26 19z m200 -70 c0 -6 -6 -3 -12 8 -6 11 -18 29 -27 40 -9 12 -4 8 12 -7
15 -16 27 -34 27 -41z m185 -4 c7 -23 10 -45 7 -48 -15 -14 -30 -1 -36 31 -4
19 -10 42 -13 51 -4 11 -1 14 12 12 11 -3 23 -20 30 -46z m-298 -28 c33 -33
35 -39 31 -85 -4 -38 -1 -53 12 -65 9 -8 20 -12 23 -8 4 3 7 1 7 -5 0 -17 -15
-15 -30 3 -7 8 -17 15 -23 15 -6 0 0 -12 14 -27 22 -26 23 -27 1 -9 -20 17
-27 18 -56 8 -18 -7 -40 -12 -49 -12 -9 0 -24 -11 -33 -25 -22 -33 -38 -32
-31 2 4 21 -2 36 -24 61 -35 40 -38 88 -9 141 20 34 24 36 76 39 51 3 57 1 91
-33z m140 -22 c-3 -10 -5 -4 -5 12 0 17 2 24 5 18 2 -7 2 -21 0 -30z m-47 -67
c0 -2 -8 -10 -17 -17 -16 -13 -17 -12 -4 4 13 16 21 21 21 13z m20 -9 c0 -2
-10 -12 -22 -23 l-23 -19 19 23 c18 21 26 27 26 19z m257 -48 c22 -40 22 -59
3 -59 -13 0 -52 79 -45 90 11 17 19 11 42 -31z m-258 -54 c0 -5 -6 1 -14 15
-8 14 -14 30 -14 35 0 6 6 -1 14 -15 8 -14 14 -29 14 -35z m-24 -13 c-3 -3
-11 0 -18 7 -9 10 -8 11 6 5 10 -3 15 -9 12 -12z m403 -95 c25 -26 29 -36 20
-45 -9 -9 -19 -5 -45 20 -18 18 -33 38 -33 45 0 23 25 14 58 -20z m-551 -97
c63 -38 86 -133 48 -198 -11 -17 -37 -41 -60 -53 -53 -28 -103 -20 -152 25
-31 28 -37 40 -41 89 -3 44 0 63 15 87 43 68 125 90 190 50z m353 -6 c61 -37
75 -106 39 -189 -12 -26 -24 -68 -28 -94 l-6 -46 -59 -3 c-63 -3 -76 4 -76 47
0 13 -13 50 -30 83 -34 66 -38 116 -14 157 34 58 116 79 174 45z m344 -15 c34
-20 49 -49 25 -49 -21 0 -79 41 -79 56 0 19 13 18 54 -7z m225 -83 l55 -41
-75 -11 c-41 -7 -76 -10 -78 -8 -2 2 2 10 9 19 10 12 9 16 -3 21 -19 7 -11 34
10 34 10 0 14 7 10 20 -6 23 -3 22 72 -34z m-123 -172 c10 -8 13 -12 6 -9 -8
4 -26 11 -40 15 -22 7 -23 8 -6 9 11 1 29 -6 40 -15z m-77 -11 c-11 -13 -11
-17 -1 -20 6 -3 12 -11 12 -18 0 -7 -6 -16 -12 -19 -18 -7 20 -36 38 -29 11 4
14 -7 15 -48 1 -30 4 -44 6 -31 5 27 12 28 29 5 8 -11 13 -13 14 -5 0 18 20
15 20 -4 0 -8 5 -12 11 -8 16 10 29 -15 29 -58 0 -62 -6 -68 -70 -68 -56 0
-59 1 -81 38 -33 53 -34 56 -11 50 18 -5 21 0 24 51 3 51 1 58 -25 84 -27 25
-36 27 -108 27 l-79 0 0 -115 0 -115 -125 0 -125 0 0 75 c0 59 3 75 15 75 10
0 15 -15 17 -57 l3 -58 93 -3 92 -3 0 116 0 115 98 0 c86 0 99 2 110 20 7 11
15 20 18 20 4 0 0 -7 -7 -17z m97 -57 c-3 -13 -13 -27 -23 -30 -16 -6 -16 -6
0 12 9 10 17 29 18 43 0 13 3 18 6 11 3 -7 2 -23 -1 -36z m-306 -597 c0 -5 -7
-9 -15 -9 -15 0 -20 12 -9 23 8 8 24 -1 24 -14z m756 -44 c3 -25 11 -45 18
-45 6 0 29 -5 50 -11 44 -12 36 -24 -25 -34 -35 -6 -37 -9 -44 -50 -8 -55 -21
-65 -30 -23 -13 63 -15 67 -53 74 -20 4 -43 10 -51 14 -16 8 -6 12 56 25 32 6
36 12 48 73 9 43 22 32 31 -23z"/>
<path d="M1457 5224 c-8 -8 1 -24 14 -24 5 0 9 7 9 15 0 15 -12 20 -23 9z"/>
<path d="M985 4730 c3 -5 8 -10 11 -10 2 0 4 5 4 10 0 6 -5 10 -11 10 -5 0 -7
-4 -4 -10z"/>
<path d="M1058 4723 c7 -3 16 -2 19 1 4 3 -2 6 -13 5 -11 0 -14 -3 -6 -6z"/>
<path d="M1058 4703 c7 -3 16 -2 19 1 4 3 -2 6 -13 5 -11 0 -14 -3 -6 -6z"/>
<path d="M1058 4683 c7 -3 16 -2 19 1 4 3 -2 6 -13 5 -11 0 -14 -3 -6 -6z"/>
<path d="M1058 4663 c7 -3 16 -2 19 1 4 3 -2 6 -13 5 -11 0 -14 -3 -6 -6z"/>
<path d="M1098 4663 c7 -3 16 -2 19 1 4 3 -2 6 -13 5 -11 0 -14 -3 -6 -6z"/>
<path d="M1058 4643 c7 -3 16 -2 19 1 4 3 -2 6 -13 5 -11 0 -14 -3 -6 -6z"/>
<path d="M1098 4643 c7 -3 16 -2 19 1 4 3 -2 6 -13 5 -11 0 -14 -3 -6 -6z"/>
<path d="M1140 4640 c0 -5 5 -10 10 -10 6 0 10 5 10 10 0 6 -4 10 -10 10 -5 0
-10 -4 -10 -10z"/>
<path d="M1115 4580 c3 -5 8 -10 11 -10 2 0 4 5 4 10 0 6 -5 10 -11 10 -5 0
-7 -4 -4 -10z"/>
<path d="M892 4475 c0 -16 2 -22 5 -12 2 9 2 23 0 30 -3 6 -5 -1 -5 -18z"/>
<path d="M942 4475 c0 -16 2 -22 5 -12 2 9 2 23 0 30 -3 6 -5 -1 -5 -18z"/>
<path d="M980 4070 c0 -9 -82 -76 -103 -83 -8 -2 -6 -16 7 -46 11 -23 23 -44
27 -46 4 -3 27 4 50 15 24 11 54 20 66 20 36 0 36 17 -2 85 -36 63 -45 75 -45
55z"/>
<path d="M800 1532 c-76 -38 -90 -136 -28 -194 78 -72 199 -4 185 104 -6 46
-29 75 -74 94 -41 18 -41 18 -83 -4z m111 -41 c49 -49 30 -129 -34 -150 -42
-14 -76 -3 -106 35 -25 32 -26 55 -5 95 28 56 99 65 145 20z"/>
<path d="M797 1472 c-38 -42 -6 -112 51 -112 16 0 36 8 45 18 22 25 21 75 -1
95 -25 22 -75 21 -95 -1z m83 -17 c7 -8 10 -25 6 -39 -8 -33 -42 -43 -67 -20
-23 21 -24 37 -3 58 20 20 48 20 64 1z"/>
<path d="M4220 5676 l0 -46 98 0 97 1 -75 38 c-41 21 -85 42 -97 45 -22 7 -23
4 -23 -38z"/>
<path d="M2490 5355 c0 -8 -4 -15 -10 -15 -5 0 -14 -9 -20 -19 -13 -26 11 -51
48 -51 l27 1 -28 15 c-34 18 -30 40 7 37 14 -1 26 2 26 8 0 5 -7 9 -15 9 -8 0
-15 7 -15 15 0 8 -4 15 -10 15 -5 0 -10 -7 -10 -15z"/>
<path d="M2520 5246 c0 -10 -13 -16 -37 -18 -32 -3 -35 -5 -18 -13 11 -5 23
-13 26 -18 8 -11 59 32 59 50 0 7 -7 13 -15 13 -8 0 -15 -6 -15 -14z"/>
<path d="M3090 5215 c0 -8 7 -15 15 -15 8 0 15 7 15 15 0 8 -7 15 -15 15 -8 0
-15 -7 -15 -15z"/>
<path d="M3060 5196 c0 -9 -8 -16 -20 -16 -11 0 -20 -4 -20 -10 0 -5 9 -10 20
-10 11 0 20 5 20 10 0 6 7 10 16 10 17 0 14 22 -4 28 -7 2 -12 -3 -12 -12z"/>
<path d="M2624 5166 c-30 -30 -34 -40 -34 -84 0 -63 15 -74 49 -36 25 28 31
29 98 28 63 -1 76 -5 104 -28 29 -25 33 -26 42 -11 5 10 7 38 4 63 -4 35 -12
53 -36 74 -29 26 -38 28 -112 28 -79 0 -82 -1 -115 -34z"/>
<path d="M2393 5183 c-18 -6 -16 -42 2 -49 22 -9 18 -24 -7 -24 -21 0 -21 -1
-3 -14 16 -11 21 -11 32 0 17 17 16 41 -2 48 -20 7 -19 24 3 28 14 3 14 5 2 9
-8 3 -21 4 -27 2z"/>
<path d="M2960 5160 c0 -5 7 -10 15 -10 8 0 15 5 15 10 0 6 -7 10 -15 10 -8 0
-15 -4 -15 -10z"/>
<path d="M2925 5140 c-3 -5 3 -10 15 -10 12 0 18 5 15 10 -3 6 -10 10 -15 10
-5 0 -12 -4 -15 -10z"/>
<path d="M3087 5129 c-5 -17 -11 -20 -28 -16 -13 4 -29 1 -36 -5 -7 -6 -30
-12 -50 -14 -43 -4 -65 -20 -39 -30 10 -4 22 -2 29 5 6 6 21 11 33 11 13 0 26
5 29 10 3 6 17 7 29 4 18 -4 28 1 45 25 17 24 19 31 8 31 -8 0 -17 -10 -20
-21z"/>
<path d="M2505 5118 c-15 -22 -14 -24 12 -45 27 -22 27 -23 6 -23 -12 0 -25
-4 -28 -10 -3 -5 0 -10 9 -10 8 0 16 -6 19 -12 3 -9 11 -5 25 10 23 26 20 48
-9 57 -25 8 -25 29 1 22 24 -6 28 18 4 27 -22 8 -21 9 -39 -16z"/>
<path d="M3160 5050 c-11 -11 -20 -27 -20 -35 0 -8 9 -24 20 -35 11 -11 27
-20 35 -20 8 0 24 9 35 20 11 11 20 27 20 35 0 8 -9 24 -20 35 -11 11 -27 20
-35 20 -8 0 -24 -9 -35 -20z m53 -27 c4 -3 2 -12 -4 -20 -9 -10 -15 -10 -25
-2 -8 6 -11 15 -8 20 6 11 28 12 37 2z"/>
<path d="M2580 5010 c0 -5 4 -10 10 -10 5 0 18 -9 29 -21 18 -19 23 -20 77 -9
43 9 59 9 62 1 6 -17 91 -14 98 4 3 8 14 17 25 20 10 4 19 11 19 16 0 6 -8 6
-20 -1 -14 -7 -20 -7 -20 0 0 5 -22 10 -50 10 -27 0 -50 -4 -50 -10 0 -5 -9
-10 -20 -10 -11 0 -20 5 -20 10 0 6 -22 10 -50 10 -28 0 -50 -5 -50 -10 0 -7
-6 -7 -20 0 -14 7 -20 7 -20 0z m130 -15 c0 -11 -11 -15 -40 -15 -29 0 -40 4
-40 15 0 11 11 15 40 15 29 0 40 -4 40 -15z m130 0 c0 -10 -11 -15 -35 -15
-24 0 -35 5 -35 15 0 10 11 15 35 15 24 0 35 -5 35 -15z"/>
<path d="M3073 4986 c-4 -8 -17 -14 -28 -13 -12 1 -20 -4 -20 -14 0 -9 -6 -24
-14 -33 -11 -13 -11 -19 0 -32 8 -9 14 -24 14 -33 0 -9 7 -16 16 -16 9 0 24
-6 33 -14 13 -11 19 -11 32 0 9 8 24 14 33 14 9 0 16 7 16 16 0 9 6 24 14 33
11 13 11 19 0 32 -8 9 -14 24 -14 33 0 10 -8 15 -20 14 -11 -1 -24 5 -28 13
-4 8 -12 14 -17 14 -5 0 -13 -6 -17 -14z m51 -61 c12 -31 -17 -61 -48 -49 -38
14 -27 64 14 64 16 0 30 -7 34 -15z"/>
<path d="M2848 4898 l-36 -30 -21 21 c-27 27 -75 27 -102 0 l-21 -21 -39 26
c-47 31 -53 15 -13 -34 53 -63 136 -79 201 -39 46 29 58 15 57 -64 -1 -90
-123 -472 -148 -464 -6 2 -40 88 -75 193 -64 191 -84 292 -63 330 9 17 3 16
-50 -9 -33 -16 -61 -27 -63 -25 -2 2 3 18 12 36 13 27 14 37 4 60 l-13 27 -14
-34 c-8 -18 -14 -40 -14 -47 0 -9 -11 -14 -30 -14 -36 0 -38 -13 -7 -36 l22
-17 -28 -30 c-59 -64 -71 -101 -75 -239 l-4 -126 44 -32 c136 -99 329 -136
493 -95 69 17 187 75 228 110 27 24 27 25 27 147 0 98 -4 131 -19 163 -24 54
-96 118 -157 140 -72 27 -78 34 -64 85 6 23 10 43 8 45 -2 1 -19 -11 -40 -27z
m-70 -36 c2 -8 -11 -12 -37 -12 -43 0 -53 12 -24 28 19 11 55 1 61 -16z"/>
<path d="M3188 4883 c-17 -4 -23 -21 -18 -53 2 -18 0 -16 26 -24 29 -9 57 19
48 48 -6 20 -23 37 -34 35 -3 -1 -13 -3 -22 -6z m32 -38 c0 -8 -7 -15 -15 -15
-16 0 -20 12 -8 23 11 12 23 8 23 -8z"/>
<path d="M3390 4757 c0 -24 -2 -57 -4 -73 -2 -16 -1 -23 1 -17 9 26 33 -15 33
-55 0 -23 5 -43 13 -45 6 -3 2 -6 -10 -6 -30 -1 -33 -41 -3 -41 11 0 20 -4 20
-10 0 -5 9 -10 20 -10 11 0 20 5 20 10 0 6 7 10 15 10 15 0 85 59 85 72 0 5
-7 8 -15 8 -8 0 -15 -4 -15 -10 0 -5 -11 -10 -25 -10 -14 0 -25 5 -25 10 0 6
-7 10 -16 10 -23 0 -44 25 -44 54 0 14 -4 26 -10 26 -5 0 -10 11 -10 25 0 18
5 25 19 25 13 0 20 9 23 30 3 22 1 30 -11 30 -9 0 -26 3 -38 6 -21 6 -23 3
-23 -39z"/>
<path d="M3590 4670 c0 -5 5 -10 10 -10 6 0 10 -13 10 -30 0 -26 4 -30 28 -30
25 1 26 1 8 15 -24 19 -14 45 19 45 18 0 25 -5 25 -20 0 -13 7 -20 20 -20 26
0 25 6 -5 35 -18 19 -35 25 -70 25 -25 0 -45 -4 -45 -10z"/>
<path d="M5467 4588 c-3 -40 -5 -74 -3 -75 6 -7 96 21 96 29 0 12 -72 118 -80
118 -4 0 -10 -32 -13 -72z"/>
<path d="M4270 4630 c0 -5 5 -10 11 -10 5 0 7 5 4 10 -3 6 -8 10 -11 10 -2 0
-4 -4 -4 -10z"/>
<path d="M4810 4540 c0 -11 5 -20 10 -20 6 0 10 9 10 20 0 11 -4 20 -10 20 -5
0 -10 -9 -10 -20z"/>
<path d="M4718 4543 c7 -3 16 -2 19 1 4 3 -2 6 -13 5 -11 0 -14 -3 -6 -6z"/>
<path d="M4970 4404 c0 -9 -13 -29 -30 -44 -35 -33 -37 -40 -10 -40 18 0 20
-7 20 -56 0 -46 -4 -60 -22 -77 -16 -13 -19 -21 -10 -24 6 -3 12 -18 12 -34 0
-22 -5 -29 -19 -29 -11 0 -21 6 -24 13 -2 7 -8 8 -13 3 -5 -5 -4 -11 4 -13 14
-5 16 -43 2 -43 -5 0 -10 -18 -10 -40 0 -22 -4 -40 -10 -40 -5 0 -10 -13 -10
-30 0 -19 5 -30 14 -30 31 0 24 -19 -15 -45 -22 -14 -47 -24 -55 -21 -24 9
-42 -15 -34 -44 4 -14 13 -44 19 -67 9 -31 17 -43 31 -43 10 0 21 6 24 13 5
10 7 10 12 0 7 -15 44 -17 44 -3 0 6 18 10 40 10 33 0 40 -3 40 -20 0 -11 5
-20 10 -20 14 0 12 -64 -2 -78 -7 -7 -25 -12 -40 -12 -18 0 -28 -5 -28 -15 0
-11 -12 -15 -44 -15 -30 0 -46 5 -50 15 -13 36 -32 13 -43 -52 -28 -162 -158
-336 -308 -415 -77 -40 -172 -68 -231 -68 l-39 0 3 -55 c4 -51 2 -55 -18 -55
-20 0 -22 4 -18 55 l3 55 -39 0 c-54 0 -145 25 -224 62 -95 45 -217 167 -263
265 -19 40 -38 72 -43 72 -18 2 6 -87 44 -164 21 -44 60 -104 85 -132 l47 -53
-31 0 c-24 0 -31 -4 -31 -20 0 -29 -26 -24 -60 11 -18 20 -35 29 -45 25 -13
-5 -13 -9 -3 -26 7 -11 16 -20 20 -20 5 0 8 -7 8 -15 0 -8 -4 -15 -10 -15 -19
0 -10 -38 16 -64 27 -26 54 -34 54 -16 0 6 9 10 20 10 11 0 20 -5 20 -10 0
-21 -49 -60 -75 -60 -14 0 -25 -4 -25 -10 0 -5 -8 -10 -18 -10 -10 0 -24 -9
-32 -20 -21 -30 -40 -25 -40 10 0 23 -4 30 -20 30 -11 0 -20 -4 -20 -10 0 -5
-9 -10 -20 -10 -11 0 -20 -4 -20 -10 0 -5 -7 -10 -16 -10 -22 0 -53 -32 -36
-38 6 -2 12 -12 12 -23 0 -16 -7 -19 -45 -19 -38 0 -51 -5 -79 -33 -18 -18
-36 -45 -40 -60 -3 -15 -13 -27 -20 -27 -17 0 -26 -22 -26 -66 0 -26 -4 -34
-18 -34 -10 0 -24 -9 -32 -20 -8 -11 -25 -20 -38 -20 -13 0 -38 -15 -58 -35
-24 -24 -30 -35 -19 -35 10 0 15 -7 13 -17 -2 -12 -11 -17 -26 -15 -21 3 -22
1 -22 -93 0 -70 -4 -100 -14 -111 -23 -22 -36 -17 -36 16 0 17 -4 30 -10 30
-6 0 -10 27 -10 60 l0 60 -30 0 c-16 0 -30 5 -30 10 0 6 -22 10 -50 10 -27 0
-50 -4 -50 -10 0 -5 -9 -10 -19 -10 -11 0 -22 -6 -24 -12 -4 -10 -6 -10 -6 0
-1 6 -10 12 -21 12 -11 0 -20 5 -20 10 0 6 -17 10 -38 10 -26 0 -42 -6 -52
-20 -8 -11 -20 -20 -28 -20 -18 0 -42 -25 -42 -44 0 -9 -4 -16 -10 -16 -5 0
-10 -13 -10 -30 0 -16 -4 -30 -10 -30 -5 0 -10 -18 -10 -40 0 -22 -4 -40 -10
-40 -5 0 -10 -7 -10 -16 0 -12 6 -15 22 -10 82 23 130 28 227 22 58 -4 148 -9
199 -12 50 -3 92 -10 92 -15 0 -5 8 -9 18 -9 10 0 24 -9 32 -20 8 -11 20 -20
28 -20 12 0 62 -43 62 -55 0 -3 -14 -5 -32 -5 -30 0 -31 0 -13 -20 10 -11 29
-20 42 -20 20 0 23 5 23 40 0 22 5 40 10 40 6 0 10 -9 10 -20 0 -16 7 -20 35
-20 19 0 35 -4 35 -10 0 -5 9 -10 20 -10 13 0 20 -7 20 -20 0 -17 -7 -20 -40
-20 -22 0 -40 -4 -40 -10 0 -14 -28 -12 -33 3 -2 6 -8 8 -13 4 -5 -5 0 -22 11
-40 10 -18 36 -66 57 -107 57 -111 56 -110 110 -110 26 0 48 5 48 10 0 6 9 10
20 10 11 0 20 -4 20 -10 0 -15 57 -12 63 3 3 6 6 -7 6 -30 1 -24 6 -43 12 -43
15 0 31 -18 62 -73 65 -111 204 -229 333 -281 53 -22 85 -30 232 -56 23 -4 42
-4 42 1 0 5 9 9 20 9 13 0 20 -7 20 -20 0 -13 7 -20 20 -20 17 0 20 -7 20 -39
0 -22 5 -42 13 -44 9 -4 9 -6 0 -6 -7 -1 -13 -12 -13 -26 0 -14 -9 -35 -20
-47 -17 -19 -20 -36 -20 -121 l0 -100 -50 -49 c-39 -38 -51 -58 -57 -91 -7
-49 -26 -66 -70 -67 -18 0 -33 -4 -33 -10 0 -5 -7 -10 -16 -10 -9 0 -29 -13
-44 -30 -15 -16 -35 -30 -44 -30 -9 0 -16 -8 -16 -20 0 -11 5 -20 10 -20 6 0
10 -13 10 -30 0 -16 -4 -30 -10 -30 -5 0 -10 -9 -10 -20 0 -11 -4 -20 -10 -20
-5 0 -10 -9 -10 -20 0 -11 -4 -20 -10 -20 -5 0 -10 -9 -10 -20 0 -11 -4 -20
-9 -20 -5 0 -12 -18 -16 -40 -4 -23 -12 -40 -20 -40 -8 0 -17 -9 -20 -20 -5
-16 -15 -20 -46 -20 -32 0 -39 -3 -39 -20 0 -11 5 -20 10 -20 6 0 10 -9 10
-20 0 -26 9 -25 128 10 293 87 584 228 845 408 l48 33 -22 18 c-32 25 -19 69
21 78 l30 5 0 78 0 77 -57 -9 c-32 -5 -64 -10 -70 -13 -8 -3 -13 5 -13 20 0
27 9 30 93 40 l57 6 0 -100 0 -100 75 40 c41 21 84 39 95 39 27 0 252 226 364
365 48 61 121 160 161 220 59 89 72 115 68 138 -6 30 -18 35 -27 12 -7 -20
-56 -20 -56 0 0 8 -4 15 -10 15 -5 0 -10 7 -10 15 0 12 -14 15 -69 15 -47 0
-71 -4 -73 -12 -3 -9 -28 -14 -69 -15 -35 -1 -76 -2 -91 -2 -18 -1 -28 -6 -28
-16 0 -28 -57 -18 -89 16 -21 21 -43 32 -71 36 -46 6 -57 17 -40 38 9 11 9 15
1 15 -6 0 -11 7 -11 15 0 8 -4 15 -10 15 -5 0 -10 5 -10 12 0 6 -9 22 -21 34
-21 22 -21 24 -4 89 9 37 14 69 12 72 -3 2 -8 -11 -12 -29 -4 -18 -26 -70 -50
-115 -40 -76 -42 -83 -24 -88 10 -4 19 -13 19 -22 0 -12 -7 -14 -29 -10 -26 5
-37 -2 -103 -66 -213 -208 -504 -263 -782 -147 -143 60 -263 172 -341 321
-101 193 -101 455 0 647 98 188 255 310 465 363 71 18 103 21 195 16 125 -6
196 -26 306 -83 141 -73 291 -252 334 -398 l12 -39 36 37 c20 20 41 36 47 36
24 0 60 49 60 82 0 22 7 39 20 48 11 8 20 21 20 30 0 8 13 21 30 28 53 24 53
92 -1 92 -26 0 -29 3 -29 30 0 17 -5 30 -12 30 -8 0 -9 3 -1 11 7 7 23 1 55
-20 24 -16 63 -36 86 -43 49 -15 55 -28 12 -28 -16 0 -30 -4 -30 -10 0 -5 23
-10 50 -10 28 0 50 4 50 9 0 4 35 11 78 14 42 4 99 14 126 22 52 16 136 20
136 7 0 -4 -5 -13 -12 -20 -9 -9 -9 -12 0 -12 7 0 12 -15 12 -36 0 -48 19 -64
74 -64 42 0 47 3 64 36 21 41 22 41 47 -36 23 -69 39 -87 60 -66 8 8 15 26 15
40 0 21 5 25 37 28 l38 3 12 65 c7 36 12 75 13 88 0 21 -2 22 -15 8 -8 -8 -15
-22 -15 -30 0 -9 -5 -16 -11 -16 -18 0 -39 28 -39 52 0 13 -9 30 -20 38 -11 8
-20 22 -20 32 0 10 -4 18 -10 18 -5 0 -10 14 -10 30 0 23 -4 30 -20 30 -11 0
-20 5 -20 10 0 6 -13 10 -29 10 -36 0 -42 14 -25 64 8 21 14 48 13 60 0 14 -5
9 -15 -18 -7 -21 -23 -53 -34 -71 -19 -30 -19 -33 -2 -47 9 -9 29 -18 45 -22
15 -3 27 -11 27 -16 0 -6 9 -10 20 -10 13 0 20 -7 20 -20 0 -13 -7 -20 -20
-20 -22 0 -27 -15 -7 -24 10 -5 10 -7 0 -12 -7 -3 -13 -14 -13 -25 0 -12 -7
-19 -20 -19 -13 0 -20 -7 -20 -20 0 -11 -7 -20 -15 -20 -8 0 -15 5 -15 10 0 6
-7 10 -16 10 -15 0 -44 23 -44 34 0 3 13 6 29 6 43 0 61 10 61 32 0 21 -22 48
-39 48 -6 0 -11 9 -11 19 0 33 -20 35 -53 4 -95 -89 -169 -117 -308 -118 -90
0 -99 2 -171 38 -92 45 -157 112 -202 207 -38 82 -48 205 -22 292 48 167 212
298 371 298 l53 0 7 40 c4 26 12 40 22 40 12 0 15 -8 10 -39 -5 -37 -3 -39 24
-43 20 -3 29 0 29 9 0 7 -4 13 -10 13 -5 0 -10 23 -10 51 0 41 5 56 22 71 24
20 27 20 123 -6 32 -9 73 -16 90 -16 46 0 75 -11 75 -27 0 -19 25 -43 44 -43
22 0 20 -23 -4 -40 -11 -8 -20 -20 -20 -27 0 -7 -4 -13 -10 -13 -5 0 -10 -13
-10 -30 0 -35 10 -38 30 -10 19 27 30 25 30 -5 0 -21 -5 -25 -28 -25 -16 0
-34 -8 -42 -20 -8 -11 -20 -20 -27 -20 -21 0 -24 -19 -6 -46 9 -15 19 -22 21
-15 2 6 24 11 49 11 25 0 51 6 59 14 16 17 19 36 4 36 -5 0 -10 11 -10 25 0
14 5 25 10 25 6 0 10 12 10 26 0 16 12 37 30 54 17 15 30 31 30 34 0 3 -13 6
-30 6 -20 0 -30 5 -30 15 0 8 -4 15 -10 15 -5 0 -10 13 -10 29 0 27 2 29 58
35 73 8 85 16 76 50 -6 26 -8 26 -58 19 -28 -5 -103 -8 -166 -7 -99 1 -125 5
-190 28 -116 43 -108 42 -115 3 -5 -26 -11 -34 -22 -30 -11 5 -14 15 -9 44 6
37 5 39 -51 76 -78 51 -181 157 -223 231 l-35 60 -43 -25 c-32 -18 -47 -22
-55 -14 -13 13 -14 11 40 45 l43 26 -15 38 c-28 70 -45 167 -45 255 0 51 -4
87 -10 87 -5 0 -10 -7 -10 -16z m-240 -1174 c37 -19 55 -50 29 -50 -9 0 -66
30 -88 46 -4 3 9 24 15 24 3 0 23 -9 44 -20z m168 -104 c3 -13 -1 -17 -14 -14
-11 2 -20 11 -22 22 -3 13 1 17 14 14 11 -2 20 -11 22 -22z m-1050 -89 c20
-13 49 -31 65 -41 22 -14 25 -19 15 -30 -8 -9 -17 -11 -22 -5 -6 5 -20 9 -33
9 -13 0 -23 5 -23 10 0 6 -22 10 -50 10 -55 0 -61 9 -27 45 28 30 30 30 75 2z
m352 -267 c0 -43 -3 -50 -20 -50 -17 0 -20 7 -20 50 0 43 3 50 20 50 17 0 20
-7 20 -50z m779 -54 c9 -11 3 -20 -31 -45 -30 -22 -45 -28 -52 -20 -8 7 1 21
29 45 22 18 41 34 41 34 1 0 7 -6 13 -14z m-164 -135 c6 -11 -65 -73 -79 -68
-21 7 -14 23 21 50 39 29 49 32 58 18z m1065 -73 c0 -4 -5 -10 -11 -14 -18
-10 -80 68 -67 84 8 9 18 4 44 -25 18 -21 33 -41 34 -45z m-2660 -134 c39 -16
49 -27 31 -38 -11 -7 -101 23 -101 33 0 10 11 21 21 21 5 0 27 -7 49 -16z
m194 -74 c32 -13 44 -24 40 -34 -5 -13 -11 -13 -47 1 -51 19 -61 28 -53 42 9
14 6 14 60 -9z m1496 -40 c0 -5 -4 -10 -10 -10 -5 0 -10 5 -10 10 0 6 5 10 10
10 6 0 10 -4 10 -10z m-1800 -20 c0 -5 -14 -10 -31 -10 -17 0 -28 4 -24 10 3
6 17 10 31 10 13 0 24 -4 24 -10z m-40 -70 c0 -11 -4 -20 -10 -20 -5 0 -10 2
-10 4 0 2 -3 11 -6 20 -4 11 -1 16 10 16 9 0 16 -8 16 -20z m60 10 c0 -5 -4
-10 -10 -10 -5 0 -10 5 -10 10 0 6 5 10 10 10 6 0 10 -4 10 -10z m256 -224
c21 -21 18 -26 -16 -26 -23 0 -30 4 -30 20 0 23 25 27 46 6z m2056 -455 c17
-15 -11 -27 -54 -23 -39 3 -48 8 -48 23 0 16 6 18 48 13 26 -4 50 -9 54 -13z
m-739 -398 c21 -6 23 -23 2 -23 -17 0 -21 -16 -5 -22 6 -2 6 -9 0 -17 -7 -12
-11 -12 -24 -2 -13 11 -16 9 -22 -14 -6 -25 -9 -22 -40 45 -19 40 -34 74 -34
76 0 2 24 -6 53 -17 28 -12 60 -24 70 -26z m174 -147 c1 -1 -2 -7 -6 -15 -7
-10 -17 -8 -50 8 -40 21 -48 31 -35 44 5 5 74 -24 91 -37z m-287 -55 c0 -55
-3 -70 -17 -75 -26 -10 -36 16 -13 36 12 10 20 28 20 47 0 28 -3 31 -30 31
-29 0 -30 -1 -30 -49 0 -49 -18 -79 -40 -66 -17 11 -11 37 10 42 16 4 20 14
20 48 0 45 6 51 58 54 21 1 22 -3 22 -68z m448 14 c19 -4 32 -13 32 -22 0 -13
-8 -14 -47 -8 -27 4 -51 9 -55 11 -14 9 4 35 21 30 9 -2 31 -7 49 -11z m-390
-272 c4 -26 -32 -66 -55 -61 -52 10 -28 92 25 86 19 -2 28 -10 30 -25z"/>
<path d="M4548 953 c6 -2 18 -2 25 0 6 3 1 5 -13 5 -14 0 -19 -2 -12 -5z"/>
<path d="M3480 4270 c0 -5 5 -10 10 -10 6 0 10 5 10 10 0 6 -4 10 -10 10 -5 0
-10 -4 -10 -10z"/>
<path d="M4890 4220 c0 -13 7 -20 20 -20 24 0 25 6 6 26 -20 19 -26 18 -26 -6z"/>
<path d="M3190 4100 c0 -13 -7 -20 -20 -20 -13 0 -20 -7 -20 -20 0 -11 5 -20
10 -20 6 0 10 5 10 10 0 6 9 10 20 10 16 0 20 7 20 30 0 17 -4 30 -10 30 -5 0
-10 -9 -10 -20z"/>
<path d="M4783 4065 c-14 -15 -17 -45 -5 -45 15 1 42 28 42 44 0 20 -20 20
-37 1z"/>
<path d="M3500 4030 c0 -16 -4 -30 -10 -30 -5 0 -10 -18 -10 -40 0 -33 -3 -40
-20 -40 -11 0 -20 -4 -20 -10 0 -5 -9 -10 -20 -10 -13 0 -20 -7 -20 -20 0 -11
-4 -20 -10 -20 -5 0 -10 9 -10 20 0 11 -4 20 -10 20 -15 0 -12 -29 4 -46 8 -8
22 -14 30 -14 11 0 16 -9 16 -30 0 -16 5 -30 10 -30 6 0 10 -9 10 -20 0 -27
-27 -26 -50 3 l-18 22 -20 -22 c-23 -27 -29 -28 -48 -9 -20 20 -18 56 4 75 18
15 39 71 27 71 -13 0 -75 -70 -75 -85 0 -10 -10 -15 -30 -15 -17 0 -40 -9 -52
-20 -12 -11 -28 -20 -35 -20 -7 0 -13 -4 -13 -10 0 -5 -7 -10 -16 -10 -20 0
-44 -24 -44 -44 0 -8 -10 -17 -22 -19 -13 -2 61 -5 165 -6 160 -1 187 1 187
14 0 8 9 15 20 15 11 0 20 -7 20 -15 0 -20 15 -19 36 2 13 13 19 14 22 5 5
-15 42 -16 42 -1 0 6 8 3 18 -7 16 -17 17 -16 22 27 l5 44 -42 3 c-40 3 -43 5
-43 33 0 28 2 29 48 29 l47 0 33 65 c37 75 40 87 13 57 -10 -12 -26 -22 -35
-22 -9 0 -16 -5 -16 -11 0 -6 -7 -4 -15 5 -8 8 -15 20 -15 26 0 17 26 40 45
40 14 0 14 3 -2 25 -21 29 -27 30 -47 9 -15 -14 -16 -14 -16 1 0 16 -22 45
-34 45 -3 0 -6 -13 -6 -30z m-120 -306 c0 -18 -23 -44 -39 -44 -12 0 -14 20
-5 44 8 21 44 21 44 0z"/>
<path d="M4730 3930 c0 -5 11 -10 25 -10 14 0 25 5 25 10 0 6 -11 10 -25 10
-14 0 -25 -4 -25 -10z"/>
<path d="M4145 3911 c-48 -12 -70 -27 -97 -68 -28 -41 -48 -111 -29 -99 7 5
11 -4 12 -26 1 -29 3 -27 11 16 l11 49 60 -6 c71 -6 153 16 162 44 4 11 10 19
15 19 13 0 41 -55 56 -110 9 -34 12 -39 13 -19 1 15 8 29 16 32 12 5 12 12 0
52 -23 77 -65 110 -151 119 -27 3 -62 1 -79 -3z"/>
<path d="M5651 3853 l-43 -4 4 -79 c1 -43 5 -81 8 -83 3 -3 28 -7 55 -9 28 -3
40 -3 28 -1 -32 6 -29 21 5 26 19 3 14 4 -15 6 -24 0 -43 5 -43 10 0 6 19 12
43 14 l42 4 -47 1 c-27 1 -48 7 -48 12 0 6 21 11 48 12 43 1 44 2 10 5 -51 6
-48 23 3 23 39 0 40 1 37 33 -3 35 -9 37 -87 30z"/>
<path d="M3010 3610 c0 -5 5 -10 10 -10 6 0 10 -16 10 -36 0 -38 18 -64 44
-64 9 0 16 -4 16 -10 0 -5 9 -10 20 -10 13 0 20 -7 20 -20 0 -13 7 -20 20 -20
13 0 20 -7 20 -20 0 -13 7 -20 20 -20 11 0 20 -4 20 -10 0 -5 9 -10 20 -10 14
0 20 -7 20 -24 0 -16 5 -23 16 -22 26 2 29 -25 4 -31 -12 -3 -19 -11 -16 -19
3 -8 -4 -23 -16 -34 -18 -17 -19 -20 -5 -26 28 -11 52 0 55 26 2 14 8 29 13
35 5 5 9 24 9 42 0 27 4 33 23 33 30 1 67 33 67 59 0 12 5 21 10 21 18 0 10
45 -10 58 -11 7 -20 17 -20 23 0 16 26 39 44 39 11 0 16 9 16 30 l0 30 -215 0
c-137 0 -215 -4 -215 -10z m339 -198 c-5 -2 -9 -11 -9 -20 0 -13 -3 -12 -14 4
-18 24 -2 50 19 31 7 -7 9 -13 4 -15z"/>
<path d="M4040 3613 c0 -20 46 -78 79 -100 40 -27 111 -31 155 -8 16 9 31 13
34 10 3 -3 -4 -36 -16 -73 -16 -52 -62 -292 -62 -328 0 -3 21 -3 48 1 58 8
175 62 220 100 38 32 38 37 -9 152 -25 59 -36 73 -61 82 -17 6 -39 11 -49 11
-9 0 -29 14 -43 31 l-26 30 24 32 c46 64 36 71 -21 15 -32 -31 -70 -60 -84
-63 -38 -9 -87 15 -141 70 -27 27 -48 44 -48 38z"/>
<path d="M4146 3595 c-16 -12 -10 -14 54 -14 53 0 70 3 62 11 -17 17 -94 19
-116 3z"/>
<path d="M4079 3503 c-17 -25 -58 -43 -95 -43 -13 0 -32 -8 -43 -19 -21 -21
-85 -205 -78 -225 8 -20 136 -83 195 -95 29 -6 70 -11 91 -11 l39 0 -40 158
c-22 86 -43 180 -47 207 -6 49 -7 49 -22 28z"/>
<path d="M3582 3490 c0 -14 2 -19 5 -12 2 6 2 18 0 25 -3 6 -5 1 -5 -13z"/>
<path d="M4189 3468 c-8 -38 -6 -185 4 -253 l13 -90 10 115 c13 173 11 224 -9
228 -9 2 -17 2 -18 0z"/>
<path d="M5897 3464 c-15 -16 -5 -24 29 -24 24 0 34 4 32 13 -5 13 -50 22 -61
11z"/>
<path d="M1851 3424 c-151 -40 -283 -145 -354 -281 -117 -223 -77 -474 102
-653 l75 -75 7 85 c9 99 28 155 75 215 18 25 36 55 39 67 4 13 13 32 21 43 17
23 16 23 106 -55 l63 -55 -73 85 c-39 47 -72 88 -72 93 0 4 16 7 35 7 19 0 35
3 35 6 0 3 -11 19 -25 35 -13 16 -29 46 -35 67 -11 40 -14 269 -3 259 3 -4 15
1 25 10 17 15 20 15 28 3 6 -8 10 -10 10 -4 0 13 72 13 82 0 4 -6 12 -5 21 2
12 10 18 10 30 -3 9 -8 18 -11 21 -6 3 4 16 7 28 6 13 -1 31 -3 42 -4 17 -1
18 -9 14 -128 -4 -107 -8 -135 -26 -170 -12 -24 -27 -43 -32 -43 -6 0 -10 -7
-10 -15 0 -10 10 -15 30 -15 17 0 30 -3 30 -7 -1 -8 -6 -15 -88 -112 -24 -28
-41 -51 -38 -51 3 0 31 21 63 48 100 81 89 77 110 46 9 -15 18 -37 18 -50 1
-12 16 -39 34 -60 49 -56 64 -99 70 -202 l6 -92 52 45 c149 130 219 363 168
558 -49 190 -212 353 -402 402 -72 19 -211 18 -282 -1z"/>
<path d="M5550 3366 c0 -18 28 -41 38 -31 4 4 1 10 -5 12 -7 3 -13 11 -13 19
0 8 -4 14 -10 14 -5 0 -10 -6 -10 -14z"/>
<path d="M5860 3358 c0 -16 19 -38 33 -38 4 0 7 10 5 22 -3 25 -38 39 -38 16z"/>
<path d="M5237 3350 c-102 -26 -208 -114 -249 -208 -29 -64 -35 -181 -14 -254
18 -62 71 -139 125 -181 l36 -29 5 95 c6 106 22 137 70 137 23 0 28 -6 43 -53
11 -33 17 -87 17 -140 0 -51 4 -87 10 -87 16 0 12 172 -5 221 -12 34 -13 49
-4 71 9 23 8 31 -15 61 -33 43 -36 97 -6 97 12 0 39 9 61 21 28 14 50 18 70
14 27 -6 29 -10 29 -49 0 -32 -8 -54 -30 -84 -30 -42 -30 -42 -10 -62 18 -18
18 -22 5 -61 -12 -32 -14 -65 -9 -136 4 -51 11 -93 16 -93 5 0 6 39 2 90 -7
95 7 177 33 187 24 10 59 -6 71 -32 7 -14 12 -64 12 -110 0 -54 4 -85 11 -85
20 0 120 110 140 155 84 189 7 403 -175 489 -65 31 -173 42 -239 26z"/>
<path d="M2601 2747 c0 -10 -10 -42 -20 -73 -13 -36 -16 -54 -8 -51 15 5 39
85 34 117 -2 14 -5 17 -6 7z"/>
<path d="M1910 2730 c0 -5 4 -10 9 -10 5 0 12 -10 14 -22 3 -17 5 -14 6 10 1
22 -3 32 -14 32 -8 0 -15 -4 -15 -10z"/>
<path d="M2046 2732 c-3 -5 1 -9 9 -9 8 0 15 4 15 9 0 4 -4 8 -9 8 -6 0 -12
-4 -15 -8z"/>
<path d="M1980 2515 c0 -123 4 -195 10 -195 6 0 10 72 10 195 0 123 -4 195
-10 195 -6 0 -10 -72 -10 -195z"/>
<path d="M2053 2660 c0 -25 2 -35 4 -22 2 12 2 32 0 45 -2 12 -4 2 -4 -23z"/>
<path d="M5942 2654 c-11 -12 -11 -17 2 -29 21 -22 26 -19 26 15 0 33 -8 37
-28 14z"/>
<path d="M1932 2598 c-1 -25 -5 -55 -8 -65 -5 -17 -5 -17 6 0 6 9 9 39 7 65
l-3 47 -2 -47z"/>
<path d="M2053 2530 c0 -25 2 -35 4 -22 2 12 2 32 0 45 -2 12 -4 2 -4 -23z"/>
<path d="M1929 2480 c-7 -35 -4 -48 7 -38 3 4 4 21 2 40 l-3 33 -6 -35z"/>
<path d="M2050 2455 c0 -8 5 -15 10 -15 6 0 10 7 10 15 0 8 -4 15 -10 15 -5 0
-10 -7 -10 -15z"/>
<path d="M4125 2332 c-22 -11 -49 -29 -60 -41 l-19 -22 29 12 c43 17 191 15
243 -3 54 -20 51 -4 -6 36 -54 38 -129 45 -187 18z"/>
<path d="M4068 2254 c-26 -8 -52 -23 -58 -34 -10 -20 -7 -20 187 -20 l198 1
-28 24 c-15 13 -44 29 -65 34 -52 15 -178 12 -234 -5z"/>
<path d="M4228 2183 c23 -2 61 -2 85 0 23 2 4 4 -43 4 -47 0 -66 -2 -42 -4z"/>
<path d="M4380 2160 c-13 -8 -12 -10 3 -10 9 0 17 5 17 10 0 12 -1 12 -20 0z"/>
<path d="M4155 2155 c-5 -2 -32 -6 -58 -10 -47 -6 -48 -7 -31 -26 25 -28 70
-25 90 6 21 32 43 32 69 -1 21 -26 22 -26 52 -10 50 25 50 37 1 36 -23 0 -59
2 -78 5 -19 2 -39 3 -45 0z"/>
<path d="M4035 2001 c14 -28 51 -61 67 -61 16 0 7 29 -18 59 -14 17 -34 31
-45 31 -18 0 -19 -2 -4 -29z"/>
<path d="M4306 2009 c-14 -11 -26 -27 -26 -35 0 -19 -7 -18 -37 6 -36 28 -70
25 -104 -9 -49 -49 -40 -57 56 -58 47 0 85 3 85 7 0 4 18 26 40 48 22 22 40
45 40 51 0 17 -25 13 -54 -10z m-76 -54 c10 -12 10 -15 -3 -15 -8 0 -29 -3
-46 -6 -24 -5 -31 -3 -31 9 0 28 59 37 80 12z"/>
<path d="M3955 1948 c-50 -27 -54 -36 -34 -76 27 -52 24 -116 -8 -182 -15 -30
-28 -73 -29 -94 -1 -21 -7 -42 -14 -46 -7 -4 -10 -27 -8 -56 l3 -49 85 -34
c77 -31 97 -35 205 -39 138 -5 208 9 312 60 l63 31 0 48 c0 42 -3 49 -20 49
-25 0 -40 48 -19 61 11 6 9 18 -13 62 -37 76 -42 113 -23 167 l16 45 -33 28
c-18 15 -35 27 -39 27 -4 0 -30 -14 -58 -31 l-51 -32 0 -253 0 -254 -95 0 -95
0 0 253 0 253 -32 17 c-18 9 -46 25 -63 36 -24 15 -34 17 -50 9z m105 -353 c0
-8 -7 -15 -15 -15 -8 0 -15 7 -15 15 0 8 7 15 15 15 8 0 15 -7 15 -15z m-2
-52 c-4 -22 -22 -20 -26 1 -2 10 3 16 13 16 10 0 15 -7 13 -17z m2 -58 c0 -8
-7 -15 -15 -15 -8 0 -15 7 -15 15 0 8 7 15 15 15 8 0 15 -7 15 -15z"/>
<path d="M2637 1910 c-20 -11 -47 -20 -60 -20 -26 0 -64 -32 -76 -63 -5 -12
-11 -48 -15 -79 -8 -65 7 -109 51 -149 15 -13 23 -18 19 -11 -5 9 1 24 17 40
36 39 57 86 57 127 0 19 3 35 6 35 4 0 33 -25 65 -55 38 -34 75 -59 102 -66
23 -7 47 -19 53 -26 14 -16 8 -47 -12 -64 -8 -6 -14 -16 -14 -22 0 -16 69 53
86 85 31 60 3 170 -58 222 -80 69 -151 83 -221 46z"/>
<path d="M2510 1507 c-31 -28 -81 -76 -113 -106 l-58 -53 22 -24 22 -24 -21
-23 c-12 -13 -22 -27 -22 -31 0 -5 30 -57 66 -117 63 -102 69 -109 113 -123
25 -8 67 -18 93 -21 l46 -7 -58 178 c-85 261 -91 311 -45 380 8 13 14 24 13
24 -2 0 -28 -24 -58 -53z"/>
<path d="M2834 1525 c27 -69 28 -76 11 -153 -10 -42 -41 -148 -70 -235 l-52
-158 46 7 c25 4 68 14 94 23 46 16 52 22 117 127 l68 110 -25 28 -24 28 22 24
22 23 -69 64 c-123 114 -149 134 -140 112z"/>
<path d="M3287 1384 c-4 -23 -25 -78 -48 -124 -93 -186 -276 -315 -477 -338
l-67 -7 0 -225 c0 -214 2 -228 24 -277 13 -29 43 -70 66 -92 74 -68 97 -74
304 -79 125 -3 187 0 194 7 8 8 8 11 -1 11 -9 0 -12 29 -12 99 0 70 -4 101
-12 105 -10 5 -10 7 0 12 14 7 17 64 2 64 -5 0 -10 9 -10 20 0 11 5 20 10 20
6 0 10 9 10 20 0 11 -4 20 -10 20 -5 0 -10 20 -10 45 0 39 -5 51 -35 80 -19
19 -41 35 -50 35 -8 0 -15 5 -15 10 0 6 -12 10 -26 10 -26 0 -54 20 -54 40 0
6 -7 18 -15 26 -8 9 -15 25 -15 38 0 12 -5 27 -12 34 -10 10 -7 16 12 28 56
37 157 153 192 219 38 74 71 183 66 219 -2 13 -6 6 -11 -20z"/>
<path d="M2649 1303 l-24 -27 29 22 c35 27 42 27 63 2 10 -11 22 -20 27 -20 5
0 -1 11 -14 25 -30 32 -51 32 -81 -2z"/>
<path d="M2675 1250 c-17 -7 -14 -9 13 -9 20 -1 31 3 27 9 -7 12 -13 12 -40 0z"/>
<path d="M4162 940 c-6 -11 -12 -50 -12 -87 0 -64 1 -66 17 -50 12 12 19 38
21 87 4 71 -3 86 -26 50z"/>
<path d="M3262 889 c2 -6 8 -10 13 -10 5 0 11 4 13 10 2 6 -4 11 -13 11 -9 0
-15 -5 -13 -11z"/>
<path d="M4716 848 c-56 -7 -74 -13 -65 -22 5 -5 121 13 128 19 10 10 -6 11
-63 3z"/>
<path d="M4824 639 c-19 -22 -19 -22 3 -10 24 12 39 31 25 31 -5 0 -17 -10
-28 -21z"/>
</g>
</svg>
