<?xml version="1.0" standalone="no"?>
<!DOCTYPE svg PUBLIC "-//W3C//DTD SVG 20010904//EN"
 "http://www.w3.org/TR/2001/REC-SVG-20010904/DTD/svg10.dtd">
<svg version="1.0" xmlns="http://www.w3.org/2000/svg"
 width="768.000000pt" height="768.000000pt" viewBox="0 0 768.000000 768.000000"
 preserveAspectRatio="xMidYMid meet">

<g transform="translate(0.000000,768.000000) scale(0.100000,-0.100000)"
fill="#000000" stroke="none">
<path d="M3590 7160 c-74 -5 -160 -14 -190 -20 -30 -6 -93 -17 -140 -24 -137
-23 -386 -85 -445 -111 -16 -7 -41 -16 -55 -20 -152 -43 -626 -272 -688 -332
-7 -7 -17 -13 -22 -13 -5 0 -15 -6 -22 -13 -7 -6 -40 -30 -73 -52 -339 -227
-754 -665 -941 -995 -21 -36 -40 -67 -43 -70 -3 -3 -20 -32 -37 -65 -18 -33
-39 -73 -48 -90 -28 -54 -104 -219 -111 -245 -4 -14 -11 -29 -15 -35 -26 -34
-128 -373 -155 -514 -8 -41 -19 -88 -24 -105 -12 -38 -35 -243 -52 -463 -10
-129 -10 -191 -1 -300 25 -277 43 -438 52 -458 5 -11 15 -53 22 -93 l13 -73
22 20 c12 12 25 21 28 21 12 0 85 35 85 42 0 3 16 12 35 18 19 6 35 15 35 20
0 5 15 12 32 15 18 4 49 15 68 25 86 43 185 80 215 80 8 0 15 4 15 9 0 5 29
14 65 21 36 7 65 16 65 20 0 4 51 15 113 24 61 10 121 22 132 27 28 13 221 29
342 29 l103 0 3 773 c2 676 5 780 19 838 9 37 21 75 26 85 5 11 22 48 38 83
16 35 34 69 39 75 6 6 25 34 44 61 39 58 153 172 214 214 39 26 107 63 182 97
17 7 64 23 106 34 76 20 95 20 1240 17 1291 -3 1166 3 1333 -69 243 -104 459
-366 505 -613 15 -80 17 -2305 2 -2385 -27 -149 -123 -323 -236 -430 -26 -25
-57 -55 -69 -66 -49 -50 -183 -124 -296 -165 -63 -23 -75 -24 -442 -27 -232
-2 -378 -7 -378 -12 0 -6 4 -10 8 -10 5 0 15 -19 22 -42 8 -24 17 -45 20 -48
3 -3 12 -21 19 -40 7 -19 19 -48 26 -65 7 -16 16 -47 20 -67 4 -21 11 -38 15
-38 4 0 13 -28 20 -62 7 -35 16 -65 20 -68 8 -6 40 -176 40 -213 0 -14 4 -27
9 -29 16 -6 33 -276 29 -480 -1 -108 -6 -199 -9 -202 -3 -4 -35 -11 -70 -17
-35 -6 -73 -14 -84 -19 -32 -14 -439 -50 -560 -50 -60 1 -153 5 -205 10 -230
22 -299 31 -365 45 -38 8 -110 24 -160 34 -49 10 -117 26 -150 35 -77 21 -297
96 -310 106 -5 4 -21 11 -35 15 -14 4 -49 18 -78 31 -29 13 -56 24 -60 24 -4
0 -56 25 -117 55 -60 30 -112 55 -115 55 -10 -1 97 -64 195 -116 322 -170 764
-306 1140 -349 177 -20 615 -20 795 1 595 68 1164 300 1635 669 542 423 907
952 1129 1633 46 141 92 352 122 552 14 90 18 188 18 445 1 369 -3 404 -75
729 -44 193 -78 299 -171 531 -72 179 -88 211 -185 380 -181 316 -356 546
-603 796 -90 91 -133 130 -255 231 -248 208 -626 429 -905 531 -317 115 -565
176 -840 207 -121 13 -494 19 -640 10z"/>
<path d="M2695 5279 c-142 -37 -214 -99 -268 -230 -21 -54 -22 -57 -25 -850
l-3 -796 111 -18 c60 -10 110 -21 110 -25 0 -4 32 -12 70 -19 39 -7 70 -16 70
-20 0 -4 32 -15 70 -26 39 -11 70 -22 70 -26 0 -4 15 -11 33 -14 17 -4 46 -16
63 -26 17 -10 38 -19 47 -19 9 0 22 -6 29 -13 7 -7 29 -19 48 -27 19 -8 37
-17 40 -20 3 -3 23 -14 44 -24 34 -16 143 -82 171 -103 6 -5 30 -21 55 -38 25
-16 50 -35 55 -41 6 -6 23 -18 39 -28 29 -19 72 -53 113 -93 13 -13 26 -23 29
-23 16 0 294 -283 294 -299 0 -4 12 -20 28 -37 15 -17 37 -43 48 -58 l22 -27
474 3 c319 2 480 7 489 14 8 6 33 16 55 22 23 7 47 19 54 27 7 8 17 15 24 15
13 0 106 101 106 115 0 6 7 23 15 39 8 15 19 56 25 90 14 89 13 2218 -1 2288
-22 104 -98 211 -179 253 -14 7 -60 22 -103 34 -77 21 -86 21 -1165 20 -1015
-1 -1092 -3 -1157 -20z m2230 -271 c51 -32 102 -92 110 -129 4 -16 11 -31 16
-34 5 -4 9 -31 9 -60 0 -148 -127 -275 -275 -275 -29 0 -56 4 -59 9 -3 5 -18
12 -33 16 -47 12 -111 72 -138 131 -57 125 -9 278 108 341 53 29 69 32 147 29
60 -2 83 -8 115 -28z m-903 -348 c54 -11 105 -24 115 -29 10 -5 48 -23 85 -39
103 -47 246 -162 303 -246 65 -94 103 -171 137 -274 21 -60 23 -86 22 -237 0
-154 -3 -177 -26 -246 -43 -130 -110 -240 -202 -332 -45 -45 -91 -89 -102 -97
-59 -44 -209 -118 -253 -126 -20 -4 -42 -12 -50 -18 -19 -15 -373 -15 -392 0
-8 6 -29 14 -47 17 -18 4 -57 18 -87 32 -31 14 -60 25 -65 25 -6 0 -10 3 -10
8 0 4 -15 13 -32 21 -18 8 -41 21 -50 30 -10 9 -29 25 -44 36 -42 32 -134 129
-140 148 -3 9 -9 17 -13 17 -5 0 -14 14 -21 30 -7 17 -16 30 -21 30 -4 0 -14
18 -20 40 -7 22 -16 40 -20 40 -4 0 -13 23 -20 50 -7 28 -16 50 -19 50 -14 0
-30 141 -30 253 0 115 14 224 31 242 5 5 9 15 9 22 0 7 16 46 35 85 51 104 65
128 75 128 5 0 12 9 15 20 10 32 135 151 212 202 37 25 91 53 118 63 28 10 55
22 62 27 6 5 49 16 94 24 45 8 85 16 87 19 13 12 176 3 264 -15z"/>
<path d="M3760 4239 c-30 -5 -57 -13 -60 -18 -3 -5 -15 -11 -27 -15 -68 -21
-177 -145 -201 -226 -30 -106 -35 -148 -22 -197 25 -99 43 -148 56 -156 8 -4
14 -13 14 -20 0 -17 87 -99 135 -126 42 -25 151 -54 200 -54 49 0 158 29 200
54 35 20 117 97 151 141 6 8 17 32 24 54 7 21 17 45 23 52 14 17 15 193 1 223
-58 131 -115 201 -191 240 -26 13 -50 27 -53 31 -7 9 -126 28 -165 27 -16 -1
-55 -5 -85 -10z"/>
</g>
</svg>
