<?xml version="1.0" standalone="no"?>
<!DOCTYPE svg PUBLIC "-//W3C//DTD SVG 20010904//EN"
 "http://www.w3.org/TR/2001/REC-SVG-20010904/DTD/svg10.dtd">
<svg version="1.0" xmlns="http://www.w3.org/2000/svg"
 width="512.000000pt" height="512.000000pt" viewBox="0 0 512.000000 512.000000"
 preserveAspectRatio="xMidYMid meet">

<g transform="translate(0.000000,512.000000) scale(0.100000,-0.100000)"
fill="#000000" stroke="none">
<path d="M2225 4880 c-516 -78 -993 -321 -1345 -686 -521 -539 -757 -1294
-634 -2024 125 -739 600 -1379 1269 -1710 347 -171 658 -244 1045 -244 387 0
697 73 1045 244 669 330 1144 970 1269 1710 82 486 7 981 -215 1430 -235 473
-590 827 -1064 1061 -242 119 -498 196 -765 229 -136 16 -466 11 -605 -10z
m840 -837 c8 -65 52 -207 83 -268 93 -187 255 -317 455 -365 45 -11 98 -20
118 -20 l36 0 6 -82 c4 -46 7 -161 7 -255 l0 -173 -27 0 c-58 1 -241 30 -313
50 -78 22 -259 104 -309 140 -16 11 -32 20 -35 20 -2 0 -7 -255 -8 -567 -4
-553 -4 -570 -26 -643 -59 -197 -132 -327 -261 -463 -245 -258 -646 -334
-1001 -190 -91 37 -163 85 -250 166 -141 130 -233 276 -286 452 -25 81 -27
106 -28 245 -1 181 15 253 89 407 93 192 239 334 439 428 145 69 295 97 446
85 l65 -5 3 -257 2 -256 -72 5 c-177 13 -351 -74 -426 -214 -84 -158 -59 -342
65 -474 210 -225 554 -171 686 109 l32 67 3 1040 c1 572 4 1046 7 1053 3 9 62
12 249 12 l245 0 6 -47z"/>
</g>
</svg>
