<?xml version="1.0" standalone="no"?>
<!DOCTYPE svg PUBLIC "-//W3C//DTD SVG 20010904//EN"
 "http://www.w3.org/TR/2001/REC-SVG-20010904/DTD/svg10.dtd">
<svg version="1.0" xmlns="http://www.w3.org/2000/svg"
 width="512.000000pt" height="512.000000pt" viewBox="0 0 512.000000 512.000000"
 preserveAspectRatio="xMidYMid meet">

<g transform="translate(0.000000,512.000000) scale(0.100000,-0.100000)"
fill="#000000" stroke="none">
<path d="M555 1095 c283 -392 687 -698 1149 -870 533 -198 1169 -198 1702 0
462 172 866 478 1149 870 46 63 14 29 -73 -80 -307 -385 -737 -675 -1212 -818
-244 -74 -439 -102 -715 -102 -276 0 -471 28 -715 102 -478 144 -913 439
-1221 828 -78 99 -109 133 -64 70z"/>
</g>
</svg>
