<?xml version="1.0" standalone="no"?>
<!DOCTYPE svg PUBLIC "-//W3C//DTD SVG 20010904//EN"
 "http://www.w3.org/TR/2001/REC-SVG-20010904/DTD/svg10.dtd">
<svg version="1.0" xmlns="http://www.w3.org/2000/svg"
 width="512.000000pt" height="512.000000pt" viewBox="0 0 512.000000 512.000000"
 preserveAspectRatio="xMidYMid meet">

<g transform="translate(0.000000,512.000000) scale(0.100000,-0.100000)"
fill="#000000" stroke="none">
<path d="M2500 4793 c-431 -19 -833 -146 -1170 -370 -442 -293 -770 -738 -915
-1243 -181 -630 -78 -1314 279 -1849 372 -556 934 -903 1606 -991 131 -18 426
-16 561 4 489 69 935 291 1280 635 351 352 572 805 640 1311 20 149 15 429
-10 596 -143 951 -871 1704 -1811 1874 -135 24 -339 39 -460 33z m698 -1183
c434 -13 503 -20 575 -53 72 -33 151 -111 183 -182 31 -67 40 -146 55 -503 10
-210 10 -337 1 -555 -20 -465 -31 -516 -139 -618 -83 -79 -141 -100 -297 -110
-424 -28 -1607 -28 -2033 0 -163 10 -225 35 -308 122 -100 105 -107 135 -126
592 -10 228 -10 346 0 575 6 158 16 322 21 365 12 100 45 173 110 237 68 69
140 101 254 112 263 24 1159 34 1704 18z"/>
<path d="M2240 2619 l0 -411 83 44 c45 25 220 118 390 208 169 90 307 166 307
170 0 5 -764 400 -776 400 -2 0 -4 -185 -4 -411z"/>
</g>
</svg>
